<?xml version="1.0" standalone="no"?>
<!DOCTYPE svg PUBLIC "-//W3C//DTD SVG 1.1//EN" "http://www.w3.org/Graphics/SVG/1.1/DTD/svg11.dtd" >
<!--
Created with mf2outline.
-->
<svg xmlns="http://www.w3.org/2000/svg" xmlns:xlink="http://www.w3.org/1999/xlink" version="1.1">
<metadata>
Created by FontForge 20201107 at Fri Jan 26 04:36:51 2024
 By 
Copyright (c) 2024, Metaflop (http://www.metaflop.com), Simon Egli, Marco Mueller, Alexis Reigel, with Reserved Font Name Fetamont. Dual licensed under the GPL v3 (http://www.gnu.org/copyleft/gpl.html) and the OFL v1.1 (http://scripts.sil.org/OFL_web).
</metadata>
<defs>
<font id="Fetamont-_YwC62Pw1I" horiz-adv-x="675" >
  <font-face 
    font-family="Fetamont"
    font-weight="500"
    font-stretch="normal"
    units-per-em="1000"
    panose-1="2 0 5 3 0 0 0 0 0 0"
    ascent="800"
    descent="-200"
    x-height="450"
    cap-height="612"
    bbox="-36 -207 1620 812"
    underline-thickness="50"
    underline-position="-100"
    unicode-range="U+0020-FB04"
  />
    <missing-glyph />
    <glyph glyph-name="fi" unicode="fi" horiz-adv-x="810" 
d="M144 195v-177c0 -16 -14 -30 -32 -30s-32 14 -32 30v402c0 16 14 30 32 30h355c18 0 32 -14 32 -30s-14 -30 -32 -30h-323v-135h263c18 0 32 -14 32 -30s-14 -30 -32 -30h-263zM720 18c0 -16 -14 -30 -32 -30s-32 14 -32 30v414c0 16 14 30 32 30s32 -14 32 -30v-414z
" />
    <glyph glyph-name="guillemotright" unicode="&#x3e;&#x3e;" horiz-adv-x="450" 
d="M60 421c-2 4 -2 7 -2 11c0 16 15 30 32 30c13 0 25 -8 30 -19l90 -207c3 -7 2 -16 -1 -23l-90 -195c-5 -11 -16 -18 -29 -18c-17 0 -32 14 -32 30c0 4 1 8 3 12l84 183zM240 421c-2 4 -2 7 -2 11c0 16 15 30 32 30c13 0 25 -8 30 -19l90 -207c3 -7 2 -16 -1 -23l-90 -195
c-5 -11 -16 -18 -29 -18c-17 0 -32 14 -32 30c0 4 1 8 3 12l84 183z" />
    <glyph glyph-name="ffi" unicode="&#xfb00;i" horiz-adv-x="1377" 
d="M144 195v-177c0 -16 -14 -30 -32 -30s-32 14 -32 30v402c0 16 14 30 32 30h355c18 0 32 -14 32 -30s-14 -30 -32 -30h-323v-135h263c18 0 32 -14 32 -30s-14 -30 -32 -30h-263zM712 195v-177c0 -16 -14 -30 -32 -30s-32 14 -32 30v402c0 16 14 30 32 30h354
c18 0 32 -14 32 -30s-14 -30 -32 -30h-322v-135h262c18 0 32 -14 32 -30s-14 -30 -32 -30h-262zM1288 18c0 -16 -14 -30 -32 -30s-32 14 -32 30v414c0 16 14 30 32 30s32 -14 32 -30v-414z" />
    <glyph glyph-name="guillemotleft" unicode="&#x3c;&#x3c;" horiz-adv-x="450" 
d="M180 462c17 0 32 -14 32 -30c0 -4 0 -7 -2 -11l-85 -196l84 -183c2 -4 3 -8 3 -12c0 -16 -15 -30 -32 -30c-13 0 -24 7 -29 18l-90 195c-3 7 -4 16 -1 23l90 207c5 11 17 19 30 19zM360 462c17 0 32 -14 32 -30c0 -4 0 -7 -2 -11l-85 -196l84 -183c2 -4 3 -8 3 -12
c0 -16 -15 -30 -32 -30c-13 0 -24 7 -29 18l-90 195c-3 7 -4 16 -1 23l90 207c5 11 17 19 30 19z" />
    <glyph glyph-name="quotedblright" unicode="&#x2019;&#x2019;" horiz-adv-x="270" 
d="M81 612c18 0 34 -15 32 -33l-27 -222c-2 -15 -16 -27 -32 -27c-18 0 -34 15 -32 33l27 222c2 15 16 27 32 27zM216 612c18 0 34 -15 32 -33l-27 -222c-2 -15 -16 -27 -32 -27c-18 0 -34 15 -32 33l27 222c2 15 16 27 32 27z" />
    <glyph glyph-name="ff" unicode="ff" horiz-adv-x="1134" 
d="M144 195v-177c0 -16 -14 -30 -32 -30s-32 14 -32 30v402c0 16 14 30 32 30h355c18 0 32 -14 32 -30s-14 -30 -32 -30h-323v-135h263c18 0 32 -14 32 -30s-14 -30 -32 -30h-263zM712 195v-177c0 -16 -14 -30 -32 -30s-32 14 -32 30v402c0 16 14 30 32 30h354
c18 0 32 -14 32 -30s-14 -30 -32 -30h-322v-135h262c18 0 32 -14 32 -30s-14 -30 -32 -30h-262z" />
    <glyph glyph-name="exclamdown" unicode="&#x21;&#x2018;" horiz-adv-x="225" 
d="M68 375c0 24 19 42 44 42s45 -18 45 -42s-20 -42 -45 -42s-44 18 -44 42zM80 208c0 16 14 30 32 30s32 -14 32 -30v-385c0 -16 -14 -30 -32 -30s-32 14 -32 30v385z" />
    <glyph glyph-name="ffl" unicode="&#xfb00;l" horiz-adv-x="1620" 
d="M144 195v-177c0 -16 -14 -30 -32 -30s-32 14 -32 30v402c0 16 14 30 32 30h355c18 0 32 -14 32 -30s-14 -30 -32 -30h-323v-135h263c18 0 32 -14 32 -30s-14 -30 -32 -30h-263zM712 195v-177c0 -16 -14 -30 -32 -30s-32 14 -32 30v402c0 16 14 30 32 30h354
c18 0 32 -14 32 -30s-14 -30 -32 -30h-322v-135h262c18 0 32 -14 32 -30s-14 -30 -32 -30h-262zM1278 60h310c18 0 32 -14 32 -30s-14 -30 -32 -30h-342c-18 0 -32 14 -32 30v390c0 16 14 30 32 30s32 -14 32 -30v-360z" />
    <glyph glyph-name="fl" unicode="fl" horiz-adv-x="1053" 
d="M144 195v-177c0 -16 -14 -30 -32 -30s-32 14 -32 30v402c0 16 14 30 32 30h355c18 0 32 -14 32 -30s-14 -30 -32 -30h-323v-135h263c18 0 32 -14 32 -30s-14 -30 -32 -30h-263zM712 60h308c18 0 32 -14 32 -30s-14 -30 -32 -30h-340c-18 0 -32 14 -32 30v390
c0 16 14 30 32 30s32 -14 32 -30v-360z" />
    <glyph glyph-name="questiondown" unicode="&#x3f;&#x2018;" horiz-adv-x="540" 
d="M232 163h6c20 0 40 0 49 7c7 6 7 23 7 38c0 16 14 30 32 30s32 -14 32 -30c0 -35 -5 -63 -28 -82s-53 -22 -89 -22h-5c-61 0 -99 -5 -110 -54c-4 -19 -4 -42 -4 -66c0 -40 1 -79 21 -99c18 -19 54 -20 93 -20h236c18 0 32 -14 32 -30s-14 -30 -32 -30h-240
c-58 0 -102 5 -137 40c-32 32 -37 77 -37 133v12c0 56 5 101 37 133c35 35 78 40 137 40zM282 375c0 24 19 42 44 42s45 -18 45 -42s-20 -42 -45 -42s-44 18 -44 42z" />
    <glyph glyph-name="endash" unicode="&#x2d;&#x2d;" horiz-adv-x="405" 
d="M32 248c-18 0 -32 13 -32 30s14 30 32 30h340c18 0 33 -13 33 -30s-15 -30 -33 -30h-340z" />
    <glyph glyph-name="emdash" unicode="&#x2013;&#x2d;" horiz-adv-x="810" 
d="M32 248c-18 0 -32 13 -32 30s14 30 32 30h746c18 0 32 -13 32 -30s-14 -30 -32 -30h-746z" />
    <glyph glyph-name="quotedblbase" unicode="&#x2c;&#x2c;" horiz-adv-x="270" 
d="M54 -207c-18 0 -34 15 -32 33l27 222c2 15 16 27 32 27c18 0 34 -15 32 -33l-27 -222c-2 -15 -16 -27 -32 -27zM189 -207c-18 0 -34 15 -32 33l27 222c2 15 16 27 32 27c18 0 34 -15 32 -33l-27 -222c-2 -15 -16 -27 -32 -27z" />
    <glyph glyph-name="quotedblleft" unicode="&#x2018;&#x2018;" horiz-adv-x="270" 
d="M22 579c-2 18 14 33 32 33c16 0 30 -12 32 -27l27 -222c2 -18 -14 -33 -32 -33c-16 0 -30 12 -32 27zM157 579c-2 18 14 33 32 33c16 0 30 -12 32 -27l27 -222c2 -18 -14 -33 -32 -33c-16 0 -30 12 -32 27z" />
    <glyph glyph-name="ring" unicode="&#x2da;" horiz-adv-x="225" 
d="M173 532c0 24 0 49 -11 61c-8 9 -29 9 -50 9s-41 0 -49 -9c-11 -12 -11 -37 -11 -61s0 -49 11 -61c8 -9 28 -9 49 -9s42 0 50 9c11 12 11 37 11 61zM111 662h3c41 0 72 -4 97 -31c23 -25 26 -58 26 -99s-3 -74 -26 -99c-25 -27 -55 -31 -97 -31h-3c-41 0 -72 4 -97 31
c-22 24 -26 55 -26 94v10c0 39 4 70 26 94c25 27 55 31 97 31z" />
    <glyph glyph-name="rcaron" unicode="&#x159;" horiz-adv-x="567" 
d="M80 420c0 16 14 30 32 30h212c57 0 114 -2 153 -24c34 -19 49 -59 49 -104s-15 -84 -49 -103c-24 -14 -56 -20 -90 -22l133 -161c4 -5 6 -11 6 -18c0 -16 -14 -30 -32 -30c-10 0 -19 5 -25 12l-161 195h-164v-177c0 -16 -14 -30 -32 -30s-32 14 -32 30v402zM126 632
c0 16 14 30 32 30c9 0 17 -4 23 -9l103 -92l102 92c6 5 13 9 22 9c18 0 32 -14 32 -30c0 -8 -3 -16 -9 -21l-125 -112c-6 -5 -14 -8 -22 -8s-17 3 -23 8l-125 112c-6 5 -10 13 -10 21z" />
    <glyph glyph-name="Eng" unicode="&#x14a;" 
d="M144 18c0 -16 -14 -30 -32 -30s-32 14 -32 30v564c0 16 14 30 32 30c10 0 19 -4 25 -11l393 -441v422c0 16 14 30 32 30s32 -14 32 -30v-564c0 -72 -10 -132 -55 -169c-47 -38 -117 -44 -195 -44h-86c-18 0 -32 14 -32 30s14 30 32 30h80c62 0 124 2 158 29
c29 24 34 71 34 124v49l-386 433v-482z" />
    <glyph glyph-name="Q" unicode="Q" 
d="M550 113c23 38 26 97 26 157c0 92 -5 181 -48 231c-39 45 -107 51 -190 51s-152 -6 -191 -51c-43 -50 -47 -139 -47 -231c0 -77 4 -144 44 -181c41 -39 114 -41 194 -41c64 0 125 1 167 23l46 -43c-24 -15 -50 -24 -77 -30c-43 -9 -88 -10 -129 -10h-15
c-95 0 -177 9 -231 60s-63 128 -63 222v6c0 106 6 200 60 262c53 60 141 74 242 74c100 0 189 -14 241 -74c54 -62 61 -156 61 -262v-6c0 -41 -1 -85 -11 -128c-6 -25 -17 -50 -33 -72zM409 174c0 16 14 29 32 29c9 0 16 -4 22 -9l87 -81c-11 -18 -26 -32 -45 -42l-87 82
c-6 5 -9 13 -9 21zM551 28c17 11 33 26 45 42l34 -31c6 -5 10 -13 10 -21c0 -16 -14 -30 -32 -30c-9 0 -17 4 -23 9z" />
    <glyph glyph-name="Abreve" unicode="&#x102;" 
d="M530 240h-386v-222c0 -16 -14 -30 -32 -30s-32 14 -32 30v252c0 102 5 202 51 266c50 69 139 76 207 76s156 -7 206 -76c46 -64 50 -164 50 -266v-252c0 -16 -14 -30 -32 -30s-32 14 -32 30v222zM343 640h-11c-47 0 -88 5 -117 31s-35 64 -35 111c0 16 14 30 32 30
s32 -14 32 -30c0 -28 2 -55 16 -68c15 -13 46 -14 78 -14s62 0 77 14c14 13 15 40 15 68c0 16 14 30 32 30s32 -14 32 -30c0 -47 -5 -85 -34 -111s-69 -31 -117 -31zM145 300h385c-1 79 -6 158 -39 203c-29 40 -86 49 -153 49s-125 -9 -154 -49c-33 -45 -38 -124 -39 -203z
" />
    <glyph glyph-name="i" unicode="i" horiz-adv-x="243" 
d="M154 18c0 -16 -14 -30 -32 -30s-32 14 -32 30v414c0 16 14 30 32 30s32 -14 32 -30v-414z" />
    <glyph glyph-name="quoteright" unicode="&#x2019;" horiz-adv-x="225" 
d="M90 330c-17 0 -32 13 -32 30c0 2 1 3 1 5l45 222c3 14 15 25 31 25c17 0 32 -13 32 -30c0 -2 -1 -3 -1 -5l-45 -222c-3 -14 -15 -25 -31 -25z" />
    <glyph glyph-name="Gbreve" unicode="&#x11e;" horiz-adv-x="630" 
d="M518 600c18 0 32 -14 32 -30s-14 -30 -32 -30h-172c-86 0 -156 -4 -198 -49c-44 -47 -48 -131 -48 -221c0 -73 6 -136 45 -170c43 -37 120 -40 201 -40h140v180h-140c-18 0 -32 14 -32 30s14 30 32 30h172c18 0 32 -14 32 -30v-240c0 -16 -14 -30 -32 -30h-178
c-96 0 -182 7 -239 56c-55 47 -65 122 -65 214v6c0 104 8 194 63 253c59 63 140 71 247 71h172zM321 640h-12c-47 0 -87 5 -116 31s-35 64 -35 111c0 16 14 30 32 30s32 -14 32 -30c0 -28 1 -55 15 -68c15 -13 46 -14 78 -14s63 0 78 14c14 13 15 40 15 68c0 16 14 30 32 30
s32 -14 32 -30c0 -47 -6 -85 -35 -111s-68 -31 -116 -31z" />
    <glyph glyph-name="Ohungarumlaut" unicode="&#x150;" 
d="M338 552c-83 0 -152 -6 -191 -51c-43 -50 -47 -139 -47 -231c0 -77 4 -144 44 -181c41 -39 114 -41 194 -41s152 2 193 41c40 37 45 104 45 181c0 92 -5 181 -48 231c-39 45 -107 51 -190 51zM345 -12h-15c-95 0 -177 9 -231 60s-63 128 -63 222v6c0 106 6 200 60 262
c53 60 141 74 242 74c100 0 189 -14 241 -74c54 -62 61 -156 61 -262v-6c0 -94 -10 -171 -64 -222s-136 -60 -231 -60zM338 812c18 0 32 -14 32 -30c0 -7 -4 -14 -8 -19l-99 -112c-6 -7 -15 -11 -25 -11c-18 0 -32 14 -32 30c0 7 4 14 8 19l99 112c6 7 15 11 25 11zM536 812
c18 0 32 -14 32 -30c0 -7 -4 -14 -8 -19l-99 -112c-6 -7 -15 -11 -25 -11c-18 0 -32 14 -32 30c0 7 4 14 8 19l99 112c6 7 15 11 25 11z" />
    <glyph glyph-name="racute" unicode="&#x155;" horiz-adv-x="567" 
d="M80 420c0 16 14 30 32 30h212c57 0 114 -2 153 -24c34 -19 49 -59 49 -104s-15 -84 -49 -103c-24 -14 -56 -20 -90 -22l133 -161c4 -5 6 -11 6 -18c0 -16 -14 -30 -32 -30c-10 0 -19 5 -25 12l-161 195h-164v-177c0 -16 -14 -30 -32 -30s-32 14 -32 30v402zM235 490
c-18 0 -32 14 -32 30c0 9 5 18 12 23l151 112c5 4 12 7 20 7c18 0 32 -14 32 -30c0 -9 -5 -18 -12 -23l-151 -112c-5 -4 -12 -7 -20 -7z" />
    <glyph glyph-name="udieresis" unicode="&#xfc;" horiz-adv-x="607" 
d="M80 432c0 16 14 30 32 30s32 -14 32 -30v-207c0 -59 3 -116 31 -146c26 -28 74 -31 129 -31s102 3 128 31c28 30 31 87 31 146v207c0 16 14 30 32 30s32 -14 32 -30v-213c0 -74 -6 -136 -46 -179c-43 -47 -100 -52 -177 -52s-135 5 -178 52c-40 43 -46 105 -46 179v213z
M267 552c0 -24 -19 -42 -44 -42s-45 18 -45 42s20 42 45 42s44 -18 44 -42zM429 552c0 -24 -19 -42 -44 -42s-45 18 -45 42s20 42 45 42s44 -18 44 -42z" />
    <glyph glyph-name="slash" unicode="/" horiz-adv-x="450" 
d="M90 -207c-17 0 -32 14 -32 30c0 3 1 6 2 9l270 759c4 12 16 21 30 21c17 0 32 -14 32 -30c0 -3 -1 -6 -2 -9l-270 -759c-4 -12 -16 -21 -30 -21z" />
    <glyph glyph-name="asciitilde" unicode="~" horiz-adv-x="495" 
d="M64 255c0 -16 -14 -30 -32 -30s-32 14 -32 30c0 67 24 127 63 162c22 20 51 33 85 33c67 0 104 -58 128 -99c13 -22 26 -41 40 -53c11 -9 20 -13 30 -13c16 0 30 5 42 16c26 23 42 71 42 119c0 16 14 30 32 30s32 -14 32 -30c0 -67 -23 -127 -62 -162
c-22 -20 -52 -33 -86 -33c-67 0 -103 58 -127 99c-13 22 -26 41 -40 53c-11 9 -21 13 -31 13c-16 0 -29 -5 -41 -16c-26 -23 -43 -71 -43 -119z" />
    <glyph glyph-name="section" unicode="&#xa7;" horiz-adv-x="450" 
d="M91 315c33 -20 80 -23 128 -23c-33 0 -64 -1 -80 -15s-17 -44 -17 -75s1 -60 17 -74c17 -15 51 -15 86 -15c-18 0 -32 -14 -32 -30c0 -14 11 -26 26 -29c-50 0 -93 5 -124 32s-37 66 -37 116c0 47 6 86 33 113zM219 351c-53 0 -98 -6 -128 -36c-43 25 -55 71 -55 131
c0 53 8 95 42 122c35 28 85 32 141 32h119c18 0 32 -14 32 -30s-14 -30 -32 -30h-113c-41 0 -84 0 -105 -17c-18 -14 -20 -45 -20 -77s2 -63 20 -77c20 -16 60 -18 99 -18zM225 292c18 0 32 14 32 30c0 14 -11 26 -26 29c50 0 93 -5 124 -32s37 -67 37 -117
c0 -41 -5 -79 -26 -105c-37 16 -91 16 -141 16c35 0 69 0 86 15c16 14 17 43 17 74s-1 61 -17 75c-17 15 -51 15 -86 15zM231 54c57 0 106 8 135 43c34 -15 48 -48 48 -78v-6c0 -65 -4 -121 -38 -160c-33 -39 -87 -48 -151 -48h-113c-18 0 -32 14 -32 30s14 30 32 30h113
c45 0 82 2 101 25c23 27 24 78 24 129c0 14 -7 22 -12 24c-24 10 -70 11 -107 11zM231 54h-6h6z" />
    <glyph glyph-name="guilsinglright" unicode="&#x203a;" horiz-adv-x="315" 
d="M58 432c0 16 14 30 32 30c12 0 21 -6 27 -15l135 -207c3 -5 5 -10 5 -15c0 -6 -2 -11 -5 -16l-135 -195c-6 -8 -16 -14 -27 -14c-18 0 -32 14 -32 30c0 6 2 11 5 16l124 179l-124 192c-3 4 -5 9 -5 15z" />
    <glyph glyph-name="Edieresis" unicode="&#xcb;" horiz-adv-x="630" 
d="M144 240v-180h386c18 0 32 -14 32 -30s-14 -30 -32 -30h-418c-18 0 -32 14 -32 30v540c0 16 14 30 32 30h418c18 0 32 -14 32 -30s-14 -30 -32 -30h-386v-240h326c18 0 32 -14 32 -30s-14 -30 -32 -30h-326zM285 702c0 -24 -20 -42 -45 -42s-44 18 -44 42s19 42 44 42
s45 -18 45 -42zM447 702c0 -24 -20 -42 -45 -42s-44 18 -44 42s19 42 44 42s45 -18 45 -42z" />
    <glyph glyph-name="eng" unicode="&#x14b;" horiz-adv-x="607" 
d="M144 18c0 -16 -14 -30 -32 -30s-32 14 -32 30v414c0 16 14 30 32 30c9 0 17 -4 23 -9l328 -304v283c0 16 14 30 32 30s32 -14 32 -30v-419c0 -69 -7 -124 -47 -162c-44 -42 -99 -46 -172 -46h-76c-18 0 -32 14 -32 30s14 30 32 30h72c54 0 103 1 130 27s29 73 29 126v47
l-319 295v-342z" />
    <glyph glyph-name="r" unicode="r" horiz-adv-x="567" 
d="M80 420c0 16 14 30 32 30h212c57 0 114 -2 153 -24c34 -19 49 -59 49 -104s-15 -84 -49 -103c-24 -14 -56 -20 -90 -22l133 -161c4 -5 6 -11 6 -18c0 -16 -14 -30 -32 -30c-10 0 -19 5 -25 12l-161 195h-164v-177c0 -16 -14 -30 -32 -30s-32 14 -32 30v402z" />
    <glyph glyph-name="u" unicode="u" horiz-adv-x="607" 
d="M80 432c0 16 14 30 32 30s32 -14 32 -30v-207c0 -59 3 -116 31 -146c26 -28 74 -31 129 -31s102 3 128 31c28 30 31 87 31 146v207c0 16 14 30 32 30s32 -14 32 -30v-213c0 -74 -6 -136 -46 -179c-43 -47 -100 -52 -177 -52s-135 5 -178 52c-40 43 -46 105 -46 179v213z
" />
    <glyph glyph-name="Odieresis" unicode="&#xd6;" 
d="M338 552c-83 0 -152 -6 -191 -51c-43 -50 -47 -139 -47 -231c0 -77 4 -144 44 -181c41 -39 114 -41 194 -41s152 2 193 41c40 37 45 104 45 181c0 92 -5 181 -48 231c-39 45 -107 51 -190 51zM345 -12h-15c-95 0 -177 9 -231 60s-63 128 -63 222v6c0 106 6 200 60 262
c53 60 141 74 242 74c100 0 189 -14 241 -74c54 -62 61 -156 61 -262v-6c0 -94 -10 -171 -64 -222s-136 -60 -231 -60zM301 702c0 -24 -20 -42 -45 -42s-44 18 -44 42s19 42 44 42s45 -18 45 -42zM463 702c0 -24 -20 -42 -45 -42s-44 18 -44 42s19 42 44 42s45 -18 45 -42z
" />
    <glyph glyph-name="Zdotaccent" unicode="&#x17b;" 
d="M562 60c18 0 32 -14 32 -30s-14 -30 -32 -30h-450c-18 0 -32 14 -32 30c0 7 3 13 7 18l411 492h-386c-18 0 -32 14 -32 30s14 30 32 30h450c18 0 32 -14 32 -30c0 -7 -2 -13 -6 -18l-411 -492h385zM382 742c0 -24 -19 -42 -44 -42s-45 18 -45 42s20 42 45 42
s44 -18 44 -42z" />
    <glyph glyph-name="Igrave" unicode="&#xcc;" horiz-adv-x="270" 
d="M167 18c0 -16 -14 -30 -32 -30s-32 14 -32 30v564c0 16 14 30 32 30s32 -14 32 -30v-564zM0 782c0 16 14 30 32 30c8 0 16 -3 21 -7l151 -112c7 -5 12 -14 12 -23c0 -16 -14 -30 -32 -30c-8 0 -16 3 -21 7l-151 112c-7 5 -12 14 -12 23z" />
    <glyph glyph-name="P" unicode="P" horiz-adv-x="630" 
d="M80 18v552c0 16 14 30 32 30h257c67 0 128 -5 170 -37c40 -31 51 -81 51 -143s-11 -112 -51 -143c-42 -32 -104 -37 -171 -37h-224v-222c0 -16 -14 -30 -32 -30s-32 14 -32 30z" />
    <glyph glyph-name="tcaron" unicode="&#x165;" horiz-adv-x="526" 
d="M32 390c-18 0 -32 13 -32 30s14 30 32 30h462c18 0 32 -13 32 -30s-14 -30 -32 -30h-199v-372c0 -16 -14 -30 -32 -30s-32 14 -32 30v372h-199zM106 632c0 16 14 30 32 30c9 0 17 -4 23 -9l102 -92l103 92c6 5 13 9 22 9c18 0 32 -14 32 -30c0 -8 -3 -16 -9 -21
l-125 -112c-6 -5 -15 -8 -23 -8s-16 3 -22 8l-125 112c-6 5 -10 13 -10 21z" />
    <glyph glyph-name="Scedilla" unicode="&#x15e;" horiz-adv-x="630" 
d="M495 600c18 0 32 -14 32 -30s-14 -30 -32 -30h-250c-44 0 -80 -2 -99 -24c-22 -26 -24 -76 -24 -126c0 -31 3 -60 20 -73c21 -16 63 -17 103 -17h209c38 0 73 -2 98 -21c24 -18 31 -47 31 -81c0 -54 -1 -110 -23 -148c-24 -41 -72 -50 -106 -50h-114l-5 -20
c18 -2 34 -4 50 -15c23 -15 32 -40 32 -71c0 -30 -9 -57 -32 -72c-24 -15 -55 -17 -90 -17h-37c-18 0 -32 14 -32 30s14 30 32 30h38c19 0 42 0 52 6c0 0 5 6 5 23s-5 22 -5 22c-10 6 -34 6 -53 6h-1c-17 0 -32 14 -32 30c0 2 0 4 1 7l11 41h-184c-18 0 -32 14 -32 30
s14 30 32 30h364c27 0 44 6 50 17c15 26 15 79 15 121c0 14 0 30 -7 35c-9 6 -27 7 -45 7h-228c-55 0 -104 4 -139 31c-33 26 -42 68 -42 119v5c0 64 5 118 38 157c33 38 86 48 149 48h250z" />
    <glyph glyph-name="b" unicode="b" horiz-adv-x="567" 
d="M144 60h131c56 0 125 0 162 16c14 6 25 26 25 52c0 25 -13 43 -30 50c-44 17 -126 17 -190 17h-98v-135zM469 322c0 -29 -9 -63 -29 -84c6 -2 11 -3 16 -5c46 -18 70 -62 70 -105c0 -39 -17 -85 -62 -105c-49 -22 -122 -23 -189 -23h-163c-18 0 -32 14 -32 30v390
c0 16 14 30 32 30h130c83 0 169 -3 205 -53c16 -23 22 -50 22 -75z" />
    <glyph glyph-name="Yacute" unicode="&#xdd;" horiz-adv-x="697" 
d="M80 582c0 16 14 30 32 30s32 -14 32 -30v-119c0 -57 6 -107 37 -132c36 -29 102 -31 168 -31s132 2 168 31c31 25 36 75 36 132v119c0 16 14 30 32 30s32 -14 32 -30v-119c0 -76 -11 -139 -58 -177c-45 -37 -105 -44 -178 -45v-223c0 -16 -14 -30 -32 -30s-32 14 -32 30
v223c-73 1 -133 8 -178 45c-47 38 -59 101 -59 177v119zM300 640c-18 0 -32 14 -32 30c0 9 5 18 12 23l151 112c5 4 12 7 20 7c18 0 32 -14 32 -30c0 -9 -5 -18 -12 -23l-151 -112c-5 -4 -12 -7 -20 -7z" />
    <glyph glyph-name="ecircumflex" unicode="&#xea;" horiz-adv-x="567" 
d="M144 195v-135h323c18 0 32 -14 32 -30s-14 -30 -32 -30h-355c-18 0 -32 14 -32 30v390c0 16 14 30 32 30h355c18 0 32 -14 32 -30s-14 -30 -32 -30h-323v-135h263c18 0 32 -14 32 -30s-14 -30 -32 -30h-263zM165 490c-18 0 -32 14 -32 30c0 8 3 16 9 21l125 112
c6 5 15 8 23 8s16 -3 22 -8l125 -112c6 -5 10 -13 10 -21c0 -16 -14 -30 -32 -30c-9 0 -17 4 -23 9l-102 92l-103 -92c-6 -5 -13 -9 -22 -9z" />
    <glyph glyph-name="ocircumflex" unicode="&#xf4;" horiz-adv-x="607" 
d="M304 402c-69 0 -136 -2 -173 -33c-33 -28 -38 -82 -38 -144s5 -116 38 -144c37 -31 104 -33 173 -33s135 2 172 33c33 28 39 82 39 144s-6 116 -39 144c-37 31 -103 33 -172 33zM297 462h13c84 0 160 -7 210 -50c49 -41 59 -107 59 -187s-10 -146 -59 -187
c-50 -43 -126 -50 -210 -50h-13c-84 0 -159 7 -209 50c-49 41 -59 107 -59 187s10 146 59 187c50 43 125 50 209 50zM179 490c-18 0 -32 14 -32 30c0 8 3 16 9 21l125 112c6 5 15 8 23 8s16 -3 22 -8l125 -112c6 -5 10 -13 10 -21c0 -16 -14 -30 -32 -30c-9 0 -17 4 -23 9
l-102 92l-103 -92c-6 -5 -13 -9 -22 -9z" />
    <glyph glyph-name="eogonek" unicode="&#x119;" horiz-adv-x="567" 
d="M144 195v-135h323c18 0 32 -14 32 -30s-14 -30 -32 -30h-22c-17 -17 -52 -56 -64 -86c-4 -9 -5 -15 -5 -20c0 -9 1 -20 5 -22c13 -7 43 -7 67 -7h23c18 0 32 -14 32 -30s-14 -30 -32 -30h-26c-36 0 -71 1 -97 16c-25 14 -36 41 -36 73c0 45 29 80 50 106h-250
c-18 0 -32 14 -32 30v390c0 16 14 30 32 30h355c18 0 32 -14 32 -30s-14 -30 -32 -30h-323v-135h263c18 0 32 -14 32 -30s-14 -30 -32 -30h-263z" />
    <glyph glyph-name="plus" unicode="+" 
d="M90 195c-18 0 -32 13 -32 30s14 30 32 30h216v207c0 16 14 30 32 30s32 -14 32 -30v-207h215c18 0 33 -13 33 -30s-15 -30 -33 -30h-215v-207c0 -16 -14 -30 -32 -30s-32 14 -32 30v207h-216z" />
    <glyph glyph-name="Eogonek" unicode="&#x118;" horiz-adv-x="630" 
d="M144 240v-180h386c18 0 32 -14 32 -30s-14 -30 -32 -30h-28c-17 -17 -53 -56 -65 -86c-4 -9 -5 -15 -5 -20c0 -9 2 -20 6 -22c13 -7 43 -7 67 -7h22c18 0 32 -14 32 -30s-14 -30 -32 -30h-25c-36 0 -71 1 -97 16c-25 14 -37 41 -37 73c0 45 29 80 50 106h-306
c-18 0 -32 14 -32 30v540c0 16 14 30 32 30h418c18 0 32 -14 32 -30s-14 -30 -32 -30h-386v-240h326c18 0 32 -14 32 -30s-14 -30 -32 -30h-326z" />
    <glyph glyph-name="R" unicode="R" horiz-adv-x="630" 
d="M80 18v552c0 16 14 30 32 30h257c67 0 128 -5 170 -37c40 -31 51 -81 51 -143s-11 -112 -51 -143c-32 -25 -68 -32 -115 -35l160 -207c4 -5 6 -11 6 -17c0 -16 -14 -30 -32 -30c-11 0 -21 5 -27 13l-185 239h-202v-222c0 -16 -14 -30 -32 -30s-32 14 -32 30z" />
    <glyph glyph-name="ecaron" unicode="&#x11b;" horiz-adv-x="567" 
d="M144 195v-135h323c18 0 32 -14 32 -30s-14 -30 -32 -30h-355c-18 0 -32 14 -32 30v390c0 16 14 30 32 30h355c18 0 32 -14 32 -30s-14 -30 -32 -30h-323v-135h263c18 0 32 -14 32 -30s-14 -30 -32 -30h-263zM133 632c0 16 14 30 32 30c9 0 16 -4 22 -9l103 -92l102 92
c6 5 14 9 23 9c18 0 32 -14 32 -30c0 -8 -4 -16 -10 -21l-125 -112c-6 -5 -14 -8 -22 -8s-17 3 -23 8l-125 112c-6 5 -9 13 -9 21z" />
    <glyph glyph-name="V" unicode="V" horiz-adv-x="585" 
d="M26 571c-2 4 -3 7 -3 11c0 16 15 30 32 30c14 0 25 -8 30 -19l207 -493l208 493c5 11 16 19 30 19c17 0 32 -14 32 -30c0 -4 -1 -7 -3 -11l-237 -564c-5 -11 -16 -19 -30 -19s-24 8 -29 19z" />
    <glyph glyph-name="AE" unicode="&#xc6;" horiz-adv-x="990" 
d="M144 240v-222c0 -16 -14 -30 -32 -30s-32 14 -32 30v252c0 113 18 208 88 263c76 60 195 67 321 67h401c18 0 32 -14 32 -30s-14 -30 -32 -30h-363v-240h303c18 0 32 -14 32 -30s-14 -30 -32 -30h-303v-180h363c18 0 32 -14 32 -30s-14 -30 -32 -30h-395
c-18 0 -32 14 -32 30v210h-319zM145 300h318v240c-100 -1 -196 -9 -253 -53c-48 -38 -63 -105 -65 -187z" />
    <glyph glyph-name="bracketright" unicode="]" horiz-adv-x="360" 
d="M216 -135v675h-116c-18 0 -32 14 -32 30s14 30 32 30h148c18 0 32 -14 32 -30v-735c0 -16 -14 -30 -32 -30h-148c-18 0 -32 14 -32 30s14 30 32 30h116z" />
    <glyph glyph-name="H" unicode="H" 
d="M530 240h-386v-222c0 -16 -14 -30 -32 -30s-32 14 -32 30v564c0 16 14 30 32 30s32 -14 32 -30v-282h386v282c0 16 14 30 32 30s32 -14 32 -30v-564c0 -16 -14 -30 -32 -30s-32 14 -32 30v222z" />
    <glyph glyph-name="exclam" unicode="!" horiz-adv-x="225" 
d="M157 30c0 -24 -20 -42 -45 -42s-44 18 -44 42s19 42 44 42s45 -18 45 -42zM144 197c0 -16 -14 -30 -32 -30s-32 14 -32 30v385c0 16 14 30 32 30s32 -14 32 -30v-385z" />
    <glyph glyph-name="Aogonek" unicode="&#x104;" 
d="M530 240h-386v-222c0 -16 -14 -30 -32 -30s-32 14 -32 30v252c0 102 5 202 51 266c50 69 139 76 207 76s156 -7 206 -76c46 -64 50 -164 50 -266v-252c0 -16 -12 -29 -29 -30c-17 -18 -42 -48 -53 -74c-4 -9 -5 -15 -5 -20c0 -9 1 -20 5 -22c13 -7 43 -7 67 -7h23
c18 0 32 -14 32 -30s-14 -30 -32 -30h-26c-36 0 -71 1 -97 16c-25 14 -36 41 -36 73c0 40 23 73 42 97c17 23 34 40 45 51v198zM145 300h385c-1 79 -6 158 -39 203c-29 40 -86 49 -153 49s-125 -9 -154 -49c-33 -45 -38 -124 -39 -203z" />
    <glyph glyph-name="L" unicode="L" horiz-adv-x="540" 
d="M144 60h364c18 0 32 -14 32 -30s-14 -30 -32 -30h-396c-18 0 -32 14 -32 30v540c0 16 14 30 32 30s32 -14 32 -30v-510z" />
    <glyph glyph-name="comma" unicode="," horiz-adv-x="270" 
d="M112 -195c-17 0 -32 13 -32 30c0 2 1 3 1 5l45 238c3 14 16 25 32 25c17 0 32 -13 32 -30c0 -2 -1 -3 -1 -5l-45 -238c-3 -14 -16 -25 -32 -25z" />
    <glyph glyph-name="ydieresis" unicode="&#xff;" horiz-adv-x="628" 
d="M80 432c0 16 14 30 32 30s32 -14 32 -30v-79c0 -33 7 -65 27 -78c31 -20 91 -20 143 -20s112 0 143 20c20 13 26 45 26 78v79c0 16 14 30 32 30s32 -14 32 -30v-79c0 -56 -15 -102 -54 -127s-89 -29 -147 -30v-178c0 -16 -14 -30 -32 -30s-32 14 -32 30v178
c-58 1 -108 5 -147 30s-55 71 -55 127v79zM277 552c0 -24 -19 -42 -44 -42s-45 18 -45 42s20 42 45 42s44 -18 44 -42zM439 552c0 -24 -19 -42 -44 -42s-45 18 -45 42s20 42 45 42s44 -18 44 -42z" />
    <glyph glyph-name="O" unicode="O" 
d="M338 552c-83 0 -152 -6 -191 -51c-43 -50 -47 -139 -47 -231c0 -77 4 -144 44 -181c41 -39 114 -41 194 -41s152 2 193 41c40 37 45 104 45 181c0 92 -5 181 -48 231c-39 45 -107 51 -190 51zM345 -12h-15c-95 0 -177 9 -231 60s-63 128 -63 222v6c0 106 6 200 60 262
c53 60 141 74 242 74c100 0 189 -14 241 -74c54 -62 61 -156 61 -262v-6c0 -94 -10 -171 -64 -222s-136 -60 -231 -60z" />
    <glyph glyph-name="bar" unicode="|" horiz-adv-x="225" 
d="M80 582c0 16 14 30 32 30s32 -14 32 -30v-759c0 -16 -14 -30 -32 -30s-32 14 -32 30v759z" />
    <glyph glyph-name="underscore" unicode="_" horiz-adv-x="720" 
d="M0 -156c-18 0 -32 13 -32 30s14 30 32 30h720c18 0 32 -13 32 -30s-14 -30 -32 -30h-720z" />
    <glyph glyph-name="circumflex" unicode="&#x2c6;" horiz-adv-x="315" 
d="M32 490c-18 0 -32 14 -32 30c0 8 4 16 10 21l125 112c6 5 14 8 22 8s17 -3 23 -8l125 -112c6 -5 9 -13 9 -21c0 -16 -14 -30 -32 -30c-9 0 -16 4 -22 9l-102 92l-103 -92c-6 -5 -14 -9 -23 -9z" />
    <glyph glyph-name="Ecircumflex" unicode="&#xca;" horiz-adv-x="630" 
d="M144 240v-180h386c18 0 32 -14 32 -30s-14 -30 -32 -30h-418c-18 0 -32 14 -32 30v540c0 16 14 30 32 30h418c18 0 32 -14 32 -30s-14 -30 -32 -30h-386v-240h326c18 0 32 -14 32 -30s-14 -30 -32 -30h-326zM196 640c-18 0 -32 14 -32 30c0 8 4 16 10 21l125 112
c6 5 14 8 22 8s16 -3 22 -8l125 -112c6 -5 10 -13 10 -21c0 -16 -14 -30 -32 -30c-9 0 -16 4 -22 9l-103 92l-103 -92c-6 -5 -13 -9 -22 -9z" />
    <glyph glyph-name="asterisk" unicode="*" horiz-adv-x="540" 
d="M238 612c0 16 14 30 32 30s32 -14 32 -30v-115c0 -16 -14 -29 -32 -29s-32 13 -32 29v115zM59 481c0 16 14 30 32 30c3 0 6 0 9 -1l116 -30c14 -4 24 -15 24 -29c0 -16 -14 -30 -32 -30c-3 0 -6 0 -9 1l-116 30c-14 4 -24 15 -24 29zM151 249c-18 0 -32 14 -32 30
c0 6 2 12 6 17l77 102c6 8 15 12 26 12c18 0 32 -13 32 -29c0 -6 -1 -12 -5 -17l-78 -102c-6 -8 -15 -13 -26 -13zM421 279c0 -16 -14 -30 -32 -30c-11 0 -20 5 -26 13l-78 102c-4 5 -5 11 -5 17c0 16 14 29 32 29c11 0 20 -4 26 -12l77 -102c4 -5 6 -11 6 -17zM440 510
c3 1 6 1 9 1c18 0 32 -14 32 -30c0 -14 -10 -25 -24 -29l-116 -30c-3 -1 -6 -1 -9 -1c-18 0 -32 14 -32 30c0 14 10 25 24 29z" />
    <glyph glyph-name="dcaron" unicode="&#x10f;" horiz-adv-x="567" 
d="M80 30v390c0 16 14 30 32 30h149c85 0 164 -5 216 -46c49 -38 61 -102 61 -179s-12 -141 -61 -179c-52 -41 -131 -46 -216 -46h-149c-18 0 -32 14 -32 30zM144 390v-330h111c70 0 141 2 180 32c32 25 39 76 39 133s-7 108 -39 133c-39 30 -110 32 -180 32h-111zM126 632
c0 16 14 30 32 30c9 0 17 -4 23 -9l103 -92l102 92c6 5 13 9 22 9c18 0 32 -14 32 -30c0 -8 -3 -16 -9 -21l-125 -112c-6 -5 -14 -8 -22 -8s-17 3 -23 8l-125 112c-6 5 -10 13 -10 21z" />
    <glyph glyph-name="Ecaron" unicode="&#x11a;" horiz-adv-x="630" 
d="M144 240v-180h386c18 0 32 -14 32 -30s-14 -30 -32 -30h-418c-18 0 -32 14 -32 30v540c0 16 14 30 32 30h418c18 0 32 -14 32 -30s-14 -30 -32 -30h-386v-240h326c18 0 32 -14 32 -30s-14 -30 -32 -30h-326zM164 782c0 16 14 30 32 30c9 0 16 -4 22 -9l103 -92l103 92
c6 5 13 9 22 9c18 0 32 -14 32 -30c0 -8 -4 -16 -10 -21l-125 -112c-6 -5 -14 -8 -22 -8s-16 3 -22 8l-125 112c-6 5 -10 13 -10 21z" />
    <glyph glyph-name="Udieresis" unicode="&#xdc;" 
d="M80 582c0 16 14 30 32 30s32 -14 32 -30v-312c0 -73 3 -144 38 -183c32 -36 89 -39 156 -39s123 3 155 39c35 39 37 110 37 183v312c0 16 14 30 32 30s32 -14 32 -30v-318c0 -88 -6 -163 -52 -214c-45 -51 -118 -62 -204 -62c-37 0 -78 1 -118 11c-32 8 -63 24 -87 51
c-46 51 -53 126 -53 214v318zM301 702c0 -24 -20 -42 -45 -42s-44 18 -44 42s19 42 44 42s45 -18 45 -42zM463 702c0 -24 -20 -42 -45 -42s-44 18 -44 42s19 42 44 42s45 -18 45 -42z" />
    <glyph glyph-name="Zcaron" unicode="&#x17d;" 
d="M562 60c18 0 32 -14 32 -30s-14 -30 -32 -30h-450c-18 0 -32 14 -32 30c0 7 3 13 7 18l411 492h-386c-18 0 -32 14 -32 30s14 30 32 30h450c18 0 32 -14 32 -30c0 -7 -2 -13 -6 -18l-411 -492h385zM180 782c0 16 14 30 32 30c9 0 17 -4 23 -9l103 -92l102 92
c6 5 13 9 22 9c18 0 32 -14 32 -30c0 -8 -3 -16 -9 -21l-125 -112c-6 -5 -14 -8 -22 -8s-17 3 -23 8l-125 112c-6 5 -10 13 -10 21z" />
    <glyph glyph-name="acute" unicode="&#xb4;" horiz-adv-x="270" 
d="M86 490c-18 0 -32 14 -32 30c0 9 5 18 12 23l151 112c5 4 13 7 21 7c18 0 32 -14 32 -30c0 -9 -5 -18 -12 -23l-151 -112c-5 -4 -13 -7 -21 -7z" />
    <glyph glyph-name="uni1E9E" unicode="&#x1e9e;" 
d="M594 426c0 -61 -13 -114 -52 -144c9 -3 17 -6 25 -9c52 -23 73 -76 73 -123s-21 -100 -73 -123c-59 -26 -147 -27 -229 -27h-68c-18 0 -32 14 -32 30s14 30 32 30h68c70 0 156 0 202 21c21 9 36 35 36 69s-15 60 -36 69c-46 21 -132 21 -202 21c-18 0 -32 14 -32 30
s14 30 32 30c60 0 125 1 160 25c26 18 32 58 32 101s-6 83 -32 101c-35 24 -100 25 -160 25c-67 0 -125 -9 -154 -49c-37 -51 -40 -145 -40 -233v-252c0 -16 -14 -30 -32 -30s-32 14 -32 30v252c0 102 5 202 51 266c50 69 139 76 207 76h5c74 0 146 -5 194 -38
c43 -30 57 -83 57 -148z" />
    <glyph glyph-name="Uhungarumlaut" unicode="&#x170;" 
d="M80 582c0 16 14 30 32 30s32 -14 32 -30v-312c0 -73 3 -144 38 -183c32 -36 89 -39 156 -39s123 3 155 39c35 39 37 110 37 183v312c0 16 14 30 32 30s32 -14 32 -30v-318c0 -88 -6 -163 -52 -214c-45 -51 -118 -62 -204 -62c-37 0 -78 1 -118 11c-32 8 -63 24 -87 51
c-46 51 -53 126 -53 214v318zM338 812c18 0 32 -14 32 -30c0 -7 -4 -14 -8 -19l-99 -112c-6 -7 -15 -11 -25 -11c-18 0 -32 14 -32 30c0 7 4 14 8 19l99 112c6 7 15 11 25 11zM536 812c18 0 32 -14 32 -30c0 -7 -4 -14 -8 -19l-99 -112c-6 -7 -15 -11 -25 -11
c-18 0 -32 14 -32 30c0 7 4 14 8 19l99 112c6 7 15 11 25 11z" />
    <glyph glyph-name="Atilde" unicode="&#xc3;" 
d="M530 240h-386v-222c0 -16 -14 -30 -32 -30s-32 14 -32 30v252c0 102 5 202 51 266c50 69 139 76 207 76s156 -7 206 -76c46 -64 50 -164 50 -266v-252c0 -16 -14 -30 -32 -30s-32 14 -32 30v222zM255 741c-33 0 -55 -36 -55 -71c0 -16 -14 -30 -32 -30s-32 14 -32 30
c0 65 46 130 120 130c73 0 98 -66 141 -93c8 -5 15 -8 23 -8c33 0 56 36 56 71c0 16 14 30 32 30s32 -14 32 -30c0 -65 -48 -130 -122 -130c-73 0 -97 66 -140 93c-8 5 -15 8 -23 8zM145 300h385c-1 79 -6 158 -39 203c-29 40 -86 49 -153 49s-125 -9 -154 -49
c-33 -45 -38 -124 -39 -203z" />
    <glyph glyph-name="Dcaron" unicode="&#x10e;" horiz-adv-x="630" 
d="M80 30v540c0 16 14 30 32 30h172c107 0 188 -8 247 -71c55 -60 63 -148 63 -253v-6c0 -91 -11 -167 -66 -214c-57 -49 -142 -56 -238 -56h-178c-18 0 -32 14 -32 30zM144 540v-480h140c81 0 158 3 201 40c39 34 45 97 45 170c0 90 -4 174 -48 221c-42 45 -112 49 -198 49
h-140zM158 782c0 16 14 30 32 30c9 0 16 -4 22 -9l103 -92l103 92c6 5 13 9 22 9c18 0 32 -14 32 -30c0 -8 -4 -16 -10 -21l-125 -112c-6 -5 -14 -8 -22 -8s-16 3 -22 8l-125 112c-6 5 -10 13 -10 21z" />
    <glyph glyph-name="equal" unicode="=" 
d="M90 105c-18 0 -32 13 -32 30s14 30 32 30h495c18 0 33 -13 33 -30s-15 -30 -33 -30h-495zM90 330c-18 0 -32 13 -32 30s14 30 32 30h495c18 0 33 -13 33 -30s-15 -30 -33 -30h-495z" />
    <glyph glyph-name="C" unicode="C" horiz-adv-x="630" 
d="M530 600c18 0 32 -14 32 -30s-14 -30 -32 -30h-184c-86 0 -156 -4 -198 -49c-44 -47 -48 -131 -48 -221c0 -73 6 -136 45 -170c43 -37 120 -40 201 -40h184c18 0 32 -14 32 -30s-14 -30 -32 -30h-190c-96 0 -182 7 -239 56c-55 47 -65 122 -65 214v6c0 104 8 194 63 253
c59 63 140 71 247 71h184z" />
    <glyph glyph-name="Eth" unicode="&#xd0;" horiz-adv-x="630" 
d="M594 275v-11c0 -88 -8 -158 -58 -206c-54 -52 -125 -58 -217 -58h-207c-18 0 -32 14 -32 30v210h-80c-18 0 -32 13 -32 30s14 30 32 30h80v270c0 16 14 30 32 30h203c93 0 177 -15 223 -72c50 -60 56 -152 56 -253zM144 240v-180h171c73 0 138 2 175 38s40 99 40 172
c0 87 -2 174 -42 222c-34 42 -98 48 -173 48h-171v-240h171c18 0 33 -13 33 -30s-15 -30 -33 -30h-171z" />
    <glyph glyph-name="edieresis" unicode="&#xeb;" horiz-adv-x="567" 
d="M144 195v-135h323c18 0 32 -14 32 -30s-14 -30 -32 -30h-355c-18 0 -32 14 -32 30v390c0 16 14 30 32 30h355c18 0 32 -14 32 -30s-14 -30 -32 -30h-323v-135h263c18 0 32 -14 32 -30s-14 -30 -32 -30h-263zM253 552c0 -24 -19 -42 -44 -42s-45 18 -45 42s20 42 45 42
s44 -18 44 -42zM415 552c0 -24 -19 -42 -44 -42s-45 18 -45 42s20 42 45 42s44 -18 44 -42z" />
    <glyph glyph-name="ccaron" unicode="&#x10d;" horiz-adv-x="567" 
d="M467 450c18 0 32 -14 32 -30s-14 -30 -32 -30h-155c-70 0 -141 -2 -180 -32c-32 -25 -39 -76 -39 -133s7 -108 39 -133c39 -30 110 -32 180 -32h155c18 0 32 -14 32 -30s-14 -30 -32 -30h-161c-85 0 -164 5 -216 46c-49 38 -61 102 -61 179s12 141 61 179
c52 41 131 46 216 46h161zM126 632c0 16 14 30 32 30c9 0 17 -4 23 -9l103 -92l102 92c6 5 13 9 22 9c18 0 32 -14 32 -30c0 -8 -3 -16 -9 -21l-125 -112c-6 -5 -14 -8 -22 -8s-17 3 -23 8l-125 112c-6 5 -10 13 -10 21z" />
    <glyph glyph-name="cacute" unicode="&#x107;" horiz-adv-x="567" 
d="M467 450c18 0 32 -14 32 -30s-14 -30 -32 -30h-155c-70 0 -141 -2 -180 -32c-32 -25 -39 -76 -39 -133s7 -108 39 -133c39 -30 110 -32 180 -32h155c18 0 32 -14 32 -30s-14 -30 -32 -30h-161c-85 0 -164 5 -216 46c-49 38 -61 102 -61 179s12 141 61 179
c52 41 131 46 216 46h161zM235 490c-18 0 -32 14 -32 30c0 9 5 18 12 23l151 112c5 4 12 7 20 7c18 0 32 -14 32 -30c0 -9 -5 -18 -12 -23l-151 -112c-5 -4 -12 -7 -20 -7z" />
    <glyph glyph-name="odieresis" unicode="&#xf6;" horiz-adv-x="607" 
d="M304 402c-69 0 -136 -2 -173 -33c-33 -28 -38 -82 -38 -144s5 -116 38 -144c37 -31 104 -33 173 -33s135 2 172 33c33 28 39 82 39 144s-6 116 -39 144c-37 31 -103 33 -172 33zM297 462h13c84 0 160 -7 210 -50c49 -41 59 -107 59 -187s-10 -146 -59 -187
c-50 -43 -126 -50 -210 -50h-13c-84 0 -159 7 -209 50c-49 41 -59 107 -59 187s10 146 59 187c50 43 125 50 209 50zM267 552c0 -24 -19 -42 -44 -42s-45 18 -45 42s20 42 45 42s44 -18 44 -42zM429 552c0 -24 -19 -42 -44 -42s-45 18 -45 42s20 42 45 42s44 -18 44 -42z
" />
    <glyph glyph-name="four" unicode="4" horiz-adv-x="495" 
d="M250 612c17 0 32 -14 32 -30c0 -4 0 -7 -2 -11l-166 -389h192v189c0 16 14 29 32 29s32 -13 32 -29v-189h92c18 0 32 -13 32 -29s-14 -30 -32 -30h-92v-105c0 -16 -14 -30 -32 -30s-32 14 -32 30v105h-238c-17 0 -33 14 -33 30c0 4 1 7 3 11l182 429c5 11 16 19 30 19z
" />
    <glyph glyph-name="adieresis" unicode="&#xe4;" horiz-adv-x="607" 
d="M463 195h-319v-177c0 -16 -14 -30 -32 -30s-32 14 -32 30v213c0 74 6 136 46 179c43 47 101 52 178 52s134 -5 177 -52c40 -43 46 -105 46 -179v-213c0 -16 -14 -30 -32 -30s-32 14 -32 30v177zM267 552c0 -24 -19 -42 -44 -42s-45 18 -45 42s20 42 45 42s44 -18 44 -42z
M429 552c0 -24 -19 -42 -44 -42s-45 18 -45 42s20 42 45 42s44 -18 44 -42zM145 255h318c-1 48 -8 91 -31 116c-26 28 -73 31 -128 31s-103 -3 -129 -31c-23 -25 -29 -68 -30 -116z" />
    <glyph glyph-name="Ydieresis" unicode="&#x178;" horiz-adv-x="697" 
d="M80 582c0 16 14 30 32 30s32 -14 32 -30v-119c0 -57 6 -107 37 -132c36 -29 102 -31 168 -31s132 2 168 31c31 25 36 75 36 132v119c0 16 14 30 32 30s32 -14 32 -30v-119c0 -76 -11 -139 -58 -177c-45 -37 -105 -44 -178 -45v-223c0 -16 -14 -30 -32 -30s-32 14 -32 30
v223c-73 1 -133 8 -178 45c-47 38 -59 101 -59 177v119zM312 702c0 -24 -19 -42 -44 -42s-45 18 -45 42s20 42 45 42s44 -18 44 -42zM474 702c0 -24 -19 -42 -44 -42s-45 18 -45 42s20 42 45 42s44 -18 44 -42z" />
    <glyph glyph-name="Thorn" unicode="&#xde;" horiz-adv-x="630" 
d="M144 18c0 -16 -14 -30 -32 -30s-32 14 -32 30v552c0 16 14 30 32 30s32 -14 32 -30v-82h224c63 0 125 -3 168 -28c38 -22 54 -65 54 -116s-16 -95 -54 -117c-43 -25 -106 -27 -169 -27h-223v-182zM144 429v-170h219c50 0 108 1 138 18c18 11 25 39 25 67
c0 29 -7 56 -25 67c-30 17 -88 18 -138 18h-219z" />
    <glyph glyph-name="cedilla" unicode="&#xb8;" horiz-adv-x="180" 
d="M32 -195c-18 0 -32 14 -32 30s14 30 32 30h38c19 0 43 0 53 6c0 0 5 6 5 23s-5 22 -5 22c-10 6 -34 6 -53 6h-2c-17 0 -32 14 -32 30c0 2 0 4 1 7l22 78c4 13 16 23 31 23c17 0 32 -14 32 -30c0 -2 0 -4 -1 -7l-12 -43c18 -2 35 -4 51 -15c23 -15 32 -40 32 -71
c0 -30 -9 -57 -32 -72c-24 -15 -56 -17 -91 -17h-37z" />
    <glyph glyph-name="p" unicode="p" horiz-adv-x="567" 
d="M80 420c0 16 14 30 32 30h212c57 0 114 -2 153 -24c34 -19 49 -59 49 -104s-15 -84 -49 -103c-39 -22 -96 -24 -153 -24h-180v-177c0 -16 -14 -30 -32 -30s-32 14 -32 30v402z" />
    <glyph glyph-name="semicolon" unicode=";" horiz-adv-x="270" 
d="M112 -195c-17 0 -32 13 -32 30c0 2 1 3 1 5l45 238c3 14 16 25 32 25c17 0 32 -13 32 -30c0 -2 -1 -3 -1 -5l-45 -238c-3 -14 -16 -25 -32 -25zM202 282c0 -24 -19 -42 -44 -42s-45 18 -45 42s20 42 45 42s44 -18 44 -42z" />
    <glyph glyph-name="Idieresis" unicode="&#xcf;" horiz-adv-x="270" 
d="M167 18c0 -16 -14 -30 -32 -30s-32 14 -32 30v564c0 16 14 30 32 30s32 -14 32 -30v-564zM98 702c0 -24 -19 -42 -44 -42s-44 18 -44 42s19 42 44 42s44 -18 44 -42zM260 702c0 -24 -19 -42 -44 -42s-44 18 -44 42s19 42 44 42s44 -18 44 -42z" />
    <glyph glyph-name="U" unicode="U" 
d="M80 582c0 16 14 30 32 30s32 -14 32 -30v-312c0 -73 3 -144 38 -183c32 -36 89 -39 156 -39s123 3 155 39c35 39 37 110 37 183v312c0 16 14 30 32 30s32 -14 32 -30v-318c0 -88 -6 -163 -52 -214c-45 -51 -118 -62 -204 -62c-37 0 -78 1 -118 11c-32 8 -63 24 -87 51
c-46 51 -53 126 -53 214v318z" />
    <glyph glyph-name="Agrave" unicode="&#xc0;" 
d="M530 240h-386v-222c0 -16 -14 -30 -32 -30s-32 14 -32 30v252c0 102 5 202 51 266c50 69 139 76 207 76s156 -7 206 -76c46 -64 50 -164 50 -266v-252c0 -16 -14 -30 -32 -30s-32 14 -32 30v222zM203 782c0 16 14 30 32 30c8 0 15 -3 20 -7l151 -112c7 -5 12 -14 12 -23
c0 -16 -14 -30 -32 -30c-8 0 -15 3 -20 7l-151 112c-7 5 -12 14 -12 23zM145 300h385c-1 79 -6 158 -39 203c-29 40 -86 49 -153 49s-125 -9 -154 -49c-33 -45 -38 -124 -39 -203z" />
    <glyph glyph-name="dollar" unicode="$" horiz-adv-x="495" 
d="M382 600c18 0 32 -14 32 -30s-14 -30 -32 -30h-102v-240h16c51 0 95 -6 126 -33s38 -67 38 -117s-7 -90 -38 -117s-75 -33 -126 -33h-16v-30c0 -16 -14 -30 -32 -30s-32 14 -32 30v30h-148c-18 0 -32 14 -32 30s14 30 32 30h148v180h-17c-51 0 -95 6 -126 33
s-37 67 -37 117c0 63 3 121 33 161c36 47 95 49 136 49h11v30c0 16 14 30 32 30s32 -14 32 -30v-30h102zM280 60h10c36 0 71 0 88 15c16 14 18 44 18 75s-2 61 -18 75c-17 15 -52 15 -88 15h-10v-180zM216 540h-11c-41 0 -70 -5 -84 -23c-21 -27 -21 -79 -21 -127
c0 -31 1 -61 17 -75c17 -15 52 -15 88 -15h11v240z" />
    <glyph glyph-name="ncaron" unicode="&#x148;" horiz-adv-x="607" 
d="M144 18c0 -16 -14 -30 -32 -30s-32 14 -32 30v414c0 16 14 30 32 30c9 0 17 -4 23 -9l328 -304v283c0 16 14 30 32 30s32 -14 32 -30v-414c0 -16 -14 -30 -32 -30s-32 14 -32 30v47l-319 295v-342zM147 632c0 16 14 30 32 30c9 0 16 -4 22 -9l103 -92l102 92
c6 5 14 9 23 9c18 0 32 -14 32 -30c0 -8 -4 -16 -10 -21l-125 -112c-6 -5 -14 -8 -22 -8s-17 3 -23 8l-125 112c-6 5 -9 13 -9 21z" />
    <glyph glyph-name="Ograve" unicode="&#xd2;" 
d="M338 552c-83 0 -152 -6 -191 -51c-43 -50 -47 -139 -47 -231c0 -77 4 -144 44 -181c41 -39 114 -41 194 -41s152 2 193 41c40 37 45 104 45 181c0 92 -5 181 -48 231c-39 45 -107 51 -190 51zM345 -12h-15c-95 0 -177 9 -231 60s-63 128 -63 222v6c0 106 6 200 60 262
c53 60 141 74 242 74c100 0 189 -14 241 -74c54 -62 61 -156 61 -262v-6c0 -94 -10 -171 -64 -222s-136 -60 -231 -60zM203 782c0 16 14 30 32 30c8 0 15 -3 20 -7l151 -112c7 -5 12 -14 12 -23c0 -16 -14 -30 -32 -30c-8 0 -15 3 -20 7l-151 112c-7 5 -12 14 -12 23z" />
    <glyph glyph-name="Icircumflex" unicode="&#xce;" horiz-adv-x="270" 
d="M167 18c0 -16 -14 -30 -32 -30s-32 14 -32 30v564c0 16 14 30 32 30s32 -14 32 -30v-564zM10 640c-18 0 -32 14 -32 30c0 8 4 16 10 21l125 112c6 5 14 8 22 8s16 -3 22 -8l125 -112c6 -5 10 -13 10 -21c0 -16 -14 -30 -32 -30c-9 0 -16 4 -22 9l-103 92l-103 -92
c-6 -5 -13 -9 -22 -9z" />
    <glyph glyph-name="e" unicode="e" horiz-adv-x="567" 
d="M144 195v-135h323c18 0 32 -14 32 -30s-14 -30 -32 -30h-355c-18 0 -32 14 -32 30v390c0 16 14 30 32 30h355c18 0 32 -14 32 -30s-14 -30 -32 -30h-323v-135h263c18 0 32 -14 32 -30s-14 -30 -32 -30h-263z" />
    <glyph glyph-name="breve" unicode="&#x2d8;" horiz-adv-x="315" 
d="M163 490h-11c-47 0 -88 5 -117 31s-35 64 -35 111c0 16 14 30 32 30s32 -14 32 -30c0 -28 2 -55 16 -68c15 -13 46 -14 78 -14s62 0 77 14c14 13 15 40 15 68c0 16 14 30 32 30s32 -14 32 -30c0 -47 -5 -85 -34 -111s-69 -31 -117 -31z" />
    <glyph glyph-name="ampersand" unicode="&#x26;" 
d="M88 273c-43 31 -52 82 -52 147c0 61 8 110 45 142c38 33 94 38 157 38h179c18 0 32 -14 32 -30s-14 -30 -32 -30h-173c-69 0 -125 -2 -139 -54c-5 -18 -5 -42 -5 -66c0 -41 2 -79 24 -98c26 -22 76 -22 125 -22c18 0 32 -14 32 -30s-14 -30 -32 -30h-13
c-44 0 -90 -2 -114 -18c-18 -12 -22 -42 -22 -72s4 -60 22 -72c25 -17 76 -18 122 -18h177c26 0 51 1 62 13c14 15 15 47 15 77v90h-81c-18 0 -32 13 -32 30s14 30 32 30h225c18 0 33 -13 33 -30s-15 -30 -33 -30h-80v-95c0 -45 -4 -83 -29 -110c-28 -31 -64 -35 -112 -35
h-182c-59 0 -116 3 -155 30c-36 24 -48 67 -48 120c0 55 13 99 52 123z" />
    <glyph glyph-name="d" unicode="d" horiz-adv-x="567" 
d="M80 30v390c0 16 14 30 32 30h149c85 0 164 -5 216 -46c49 -38 61 -102 61 -179s-12 -141 -61 -179c-52 -41 -131 -46 -216 -46h-149c-18 0 -32 14 -32 30zM144 390v-330h111c70 0 141 2 180 32c32 25 39 76 39 133s-7 108 -39 133c-39 30 -110 32 -180 32h-111z" />
    <glyph glyph-name="dotlessi" unicode="&#x131;" horiz-adv-x="243" 
d="M154 18c0 -16 -14 -30 -32 -30s-32 14 -32 30v414c0 16 14 30 32 30s32 -14 32 -30v-414z" />
    <glyph glyph-name="Oslash" unicode="&#xd8;" 
d="M506 521c-40 27 -101 31 -168 31c-83 0 -152 -6 -191 -51c-43 -50 -47 -139 -47 -231c0 -57 2 -113 22 -151l-45 -47c-16 22 -25 46 -31 70c-10 43 -10 87 -10 128v6c0 106 6 200 60 262c53 60 141 74 242 74c44 0 92 -1 139 -14c25 -7 50 -17 72 -33zM77 72
c12 -16 27 -31 44 -42l-30 -32c-6 -6 -13 -10 -23 -10c-18 0 -32 14 -32 30c0 7 3 15 8 20zM345 -12h-15c-41 0 -86 1 -129 10c-28 6 -55 16 -80 32l43 44c42 -25 107 -26 174 -26c80 0 152 2 193 41c40 37 45 104 45 181c0 76 -3 153 -29 204l45 47c41 -60 48 -151 48 -245
v-6c0 -94 -10 -171 -64 -222s-136 -60 -231 -60zM592 521c-12 17 -27 32 -43 44l35 37c6 6 14 10 24 10c18 0 32 -14 32 -30c0 -7 -4 -15 -9 -20zM547 474l-383 -400c-18 11 -32 26 -42 45l384 402c17 -12 31 -28 41 -47z" />
    <glyph glyph-name="Acircumflex" unicode="&#xc2;" 
d="M530 240h-386v-222c0 -16 -14 -30 -32 -30s-32 14 -32 30v252c0 102 5 202 51 266c50 69 139 76 207 76s156 -7 206 -76c46 -64 50 -164 50 -266v-252c0 -16 -14 -30 -32 -30s-32 14 -32 30v222zM212 640c-18 0 -32 14 -32 30c0 8 4 16 10 21l125 112c6 5 14 8 22 8
s17 -3 23 -8l125 -112c6 -5 9 -13 9 -21c0 -16 -14 -30 -32 -30c-9 0 -16 4 -22 9l-102 92l-103 -92c-6 -5 -14 -9 -23 -9zM145 300h385c-1 79 -6 158 -39 203c-29 40 -86 49 -153 49s-125 -9 -154 -49c-33 -45 -38 -124 -39 -203z" />
    <glyph glyph-name="w" unicode="w" horiz-adv-x="810" 
d="M19 420c-2 4 -2 8 -2 12c0 16 15 30 32 30c13 0 24 -7 29 -18l163 -351l134 290c5 11 16 19 30 19s25 -8 30 -19l134 -290l163 351c5 11 16 18 29 18c17 0 32 -14 32 -30c0 -4 0 -8 -2 -12l-192 -414c-5 -11 -17 -18 -30 -18s-24 7 -29 18l-135 292l-135 -292
c-5 -11 -16 -18 -29 -18s-25 7 -30 18z" />
    <glyph glyph-name="braceright" unicode="}" horiz-adv-x="360" 
d="M253 202c-36 36 -37 117 -37 188v11c0 49 -3 101 -24 127c-17 21 -51 24 -92 24c-18 0 -32 14 -32 30s14 30 32 30c61 0 113 -10 144 -48c32 -39 36 -95 36 -158v-5c0 -50 0 -113 14 -148c5 -13 18 -21 34 -21c18 0 32 -14 32 -30s-14 -29 -32 -29c-16 0 -29 -8 -34 -21
c-14 -35 -14 -98 -14 -148v-5c0 -63 -4 -119 -36 -158c-31 -38 -83 -48 -144 -48c-18 0 -32 14 -32 30s14 29 32 29c41 0 75 4 92 25c21 26 24 78 24 127v11c0 71 1 151 37 187z" />
    <glyph glyph-name="nacute" unicode="&#x144;" horiz-adv-x="607" 
d="M144 18c0 -16 -14 -30 -32 -30s-32 14 -32 30v414c0 16 14 30 32 30c9 0 17 -4 23 -9l328 -304v283c0 16 14 30 32 30s32 -14 32 -30v-414c0 -16 -14 -30 -32 -30s-32 14 -32 30v47l-319 295v-342zM255 490c-18 0 -32 14 -32 30c0 9 5 18 12 23l151 112c5 4 12 7 20 7
c18 0 32 -14 32 -30c0 -9 -5 -18 -12 -23l-151 -112c-5 -4 -12 -7 -20 -7z" />
    <glyph glyph-name="lslash" unicode="&#x142;" horiz-adv-x="526" 
d="M144 60h282c18 0 32 -14 32 -30s-14 -30 -32 -30h-314c-18 0 -32 14 -32 30v150l-26 -22c-6 -5 -14 -8 -22 -8c-18 0 -32 14 -32 30c0 9 5 17 11 22l69 58v160c0 16 14 30 32 30s32 -14 32 -30v-106l71 59c6 5 14 8 22 8c18 0 32 -13 32 -29c0 -9 -5 -17 -11 -22
l-114 -96v-174z" />
    <glyph glyph-name="Ccaron" unicode="&#x10c;" horiz-adv-x="630" 
d="M530 600c18 0 32 -14 32 -30s-14 -30 -32 -30h-184c-86 0 -156 -4 -198 -49c-44 -47 -48 -131 -48 -221c0 -73 6 -136 45 -170c43 -37 120 -40 201 -40h184c18 0 32 -14 32 -30s-14 -30 -32 -30h-190c-96 0 -182 7 -239 56c-55 47 -65 122 -65 214v6c0 104 8 194 63 253
c59 63 140 71 247 71h184zM158 782c0 16 14 30 32 30c9 0 16 -4 22 -9l103 -92l103 92c6 5 13 9 22 9c18 0 32 -14 32 -30c0 -8 -4 -16 -10 -21l-125 -112c-6 -5 -14 -8 -22 -8s-16 3 -22 8l-125 112c-6 5 -10 13 -10 21z" />
    <glyph glyph-name="Uacute" unicode="&#xda;" 
d="M80 582c0 16 14 30 32 30s32 -14 32 -30v-312c0 -73 3 -144 38 -183c32 -36 89 -39 156 -39s123 3 155 39c35 39 37 110 37 183v312c0 16 14 30 32 30s32 -14 32 -30v-318c0 -88 -6 -163 -52 -214c-45 -51 -118 -62 -204 -62c-37 0 -78 1 -118 11c-32 8 -63 24 -87 51
c-46 51 -53 126 -53 214v318zM289 640c-18 0 -32 14 -32 30c0 9 5 18 12 23l151 112c5 4 12 7 20 7c18 0 32 -14 32 -30c0 -9 -5 -18 -12 -23l-151 -112c-5 -4 -12 -7 -20 -7z" />
    <glyph glyph-name="v" unicode="v" horiz-adv-x="526" 
d="M20 419c-2 4 -3 9 -3 13c0 16 14 30 32 30c13 0 24 -7 29 -17l185 -359l186 359c5 10 16 17 29 17c18 0 32 -14 32 -30c0 -4 -1 -9 -3 -13l-215 -414c-5 -10 -16 -17 -29 -17s-24 7 -29 17z" />
    <glyph glyph-name="E" unicode="E" horiz-adv-x="630" 
d="M144 240v-180h386c18 0 32 -14 32 -30s-14 -30 -32 -30h-418c-18 0 -32 14 -32 30v540c0 16 14 30 32 30h418c18 0 32 -14 32 -30s-14 -30 -32 -30h-386v-240h326c18 0 32 -14 32 -30s-14 -30 -32 -30h-326z" />
    <glyph glyph-name="B" unicode="B" horiz-adv-x="630" 
d="M266 240h-122v-180h158c66 0 147 0 190 20c19 9 34 36 34 70c0 33 -17 60 -40 69c-51 21 -145 21 -220 21zM523 420c0 -56 -14 -107 -48 -136c13 -3 26 -6 37 -11c53 -22 78 -74 78 -123c0 -45 -18 -98 -69 -122c-56 -26 -140 -28 -219 -28h-190c-18 0 -32 14 -32 30v540
c0 16 14 30 32 30h157c74 0 146 -4 195 -36c43 -28 59 -81 59 -144z" />
    <glyph glyph-name="s" unicode="s" horiz-adv-x="567" 
d="M446 450c18 0 32 -14 32 -30s-14 -30 -32 -30h-226c-36 0 -72 0 -90 -15c-16 -13 -17 -42 -17 -72c0 -16 3 -32 12 -37c20 -11 61 -11 95 -11h189c34 0 66 -2 89 -18c23 -15 30 -41 30 -71c0 -46 -1 -92 -22 -124c-24 -37 -68 -42 -97 -42h-328c-18 0 -32 14 -32 30
s14 30 32 30h328c25 0 37 5 42 12c13 20 13 61 13 94c0 17 -4 23 -4 23c-9 6 -31 6 -49 6h-191c-48 0 -95 1 -128 20c-30 17 -43 50 -43 88c0 49 7 89 38 115c32 27 76 32 127 32h232z" />
    <glyph glyph-name="OE" unicode="&#x152;" horiz-adv-x="990" 
d="M890 60c18 0 32 -14 32 -30s-14 -30 -32 -30h-518c-103 0 -200 6 -263 55c-58 45 -73 122 -73 215v7c0 108 9 194 70 253c66 63 154 70 268 70h516c18 0 32 -14 32 -30s-14 -30 -32 -30h-363v-240h303c18 0 32 -14 32 -30s-14 -30 -32 -30h-303v-180h363zM463 60v480h-85
c-95 0 -176 -3 -225 -50c-48 -47 -53 -127 -53 -220c0 -73 8 -137 50 -169c50 -38 140 -41 228 -41h85z" />
    <glyph glyph-name="caron" unicode="&#x2c7;" horiz-adv-x="315" 
d="M0 632c0 16 14 30 32 30c9 0 17 -4 23 -9l103 -92l102 92c6 5 13 9 22 9c18 0 32 -14 32 -30c0 -8 -3 -16 -9 -21l-125 -112c-6 -5 -14 -8 -22 -8s-17 3 -23 8l-125 112c-6 5 -10 13 -10 21z" />
    <glyph glyph-name="eth" unicode="&#xf0;" horiz-adv-x="567" 
d="M0 195c-18 0 -32 13 -32 30s14 30 32 30h80v165c0 16 14 30 32 30h178c79 0 148 -7 194 -48c46 -40 54 -101 54 -177s-9 -137 -54 -177c-47 -41 -115 -48 -194 -48h-178c-18 0 -32 14 -32 30v165h-80zM144 195v-135h140c63 0 123 1 156 30c30 27 34 78 34 135
s-4 108 -34 135c-33 29 -93 30 -156 30h-140v-135h140c18 0 32 -13 32 -30s-14 -30 -32 -30h-140z" />
    <glyph glyph-name="Rcaron" unicode="&#x158;" horiz-adv-x="630" 
d="M80 18v552c0 16 14 30 32 30h257c67 0 128 -5 170 -37c40 -31 51 -81 51 -143s-11 -112 -51 -143c-32 -25 -68 -32 -115 -35l160 -207c4 -5 6 -11 6 -17c0 -16 -14 -30 -32 -30c-11 0 -21 5 -27 13l-185 239h-202v-222c0 -16 -14 -30 -32 -30s-32 14 -32 30zM158 782
c0 16 14 30 32 30c9 0 16 -4 22 -9l103 -92l103 92c6 5 13 9 22 9c18 0 32 -14 32 -30c0 -8 -4 -16 -10 -21l-125 -112c-6 -5 -14 -8 -22 -8s-16 3 -22 8l-125 112c-6 5 -10 13 -10 21z" />
    <glyph glyph-name="zacute" unicode="&#x17a;" horiz-adv-x="607" 
d="M495 60c18 0 32 -14 32 -30s-14 -30 -32 -30h-383c-18 0 -32 14 -32 30c0 8 4 15 9 20l334 340h-311c-18 0 -32 14 -32 30s14 30 32 30h383c18 0 32 -14 32 -30c0 -8 -3 -15 -8 -20l-334 -340h310zM255 490c-18 0 -32 14 -32 30c0 9 5 18 12 23l151 112c5 4 12 7 20 7
c18 0 32 -14 32 -30c0 -9 -5 -18 -12 -23l-151 -112c-5 -4 -12 -7 -20 -7z" />
    <glyph glyph-name="uring" unicode="&#x16f;" horiz-adv-x="607" 
d="M80 432c0 16 14 30 32 30s32 -14 32 -30v-207c0 -59 3 -116 31 -146c26 -28 74 -31 129 -31s102 3 128 31c28 30 31 87 31 146v207c0 16 14 30 32 30s32 -14 32 -30v-213c0 -74 -6 -136 -46 -179c-43 -47 -100 -52 -177 -52s-135 5 -178 52c-40 43 -46 105 -46 179v213z
M364 532c0 24 0 49 -11 61c-8 9 -28 9 -49 9s-41 0 -49 -9c-11 -12 -11 -37 -11 -61s0 -49 11 -61c8 -9 28 -9 49 -9s41 0 49 9c11 12 11 37 11 61zM302 662h3c41 0 72 -4 97 -31c23 -25 26 -58 26 -99s-3 -74 -26 -99c-25 -27 -55 -31 -97 -31h-3c-41 0 -71 4 -96 31
c-22 24 -26 55 -26 94v10c0 39 4 70 26 94c25 27 54 31 96 31z" />
    <glyph glyph-name="I" unicode="I" horiz-adv-x="270" 
d="M167 18c0 -16 -14 -30 -32 -30s-32 14 -32 30v564c0 16 14 30 32 30s32 -14 32 -30v-564z" />
    <glyph glyph-name="ntilde" unicode="&#xf1;" horiz-adv-x="607" 
d="M144 18c0 -16 -14 -30 -32 -30s-32 14 -32 30v414c0 16 14 30 32 30c9 0 17 -4 23 -9l328 -304v283c0 16 14 30 32 30s32 -14 32 -30v-414c0 -16 -14 -30 -32 -30s-32 14 -32 30v47l-319 295v-342zM221 591c-33 0 -55 -36 -55 -71c0 -16 -14 -30 -32 -30s-32 14 -32 30
c0 65 47 130 121 130c73 0 97 -66 140 -93c8 -5 16 -8 24 -8c33 0 55 36 55 71c0 16 14 30 32 30s32 -14 32 -30c0 -65 -47 -130 -121 -130c-73 0 -97 66 -140 93c-8 5 -16 8 -24 8z" />
    <glyph glyph-name="Uring" unicode="&#x16e;" 
d="M80 582c0 16 14 30 32 30s32 -14 32 -30v-312c0 -73 3 -144 38 -183c32 -36 89 -39 156 -39s123 3 155 39c35 39 37 110 37 183v312c0 16 14 30 32 30s32 -14 32 -30v-318c0 -88 -6 -163 -52 -214c-45 -51 -118 -62 -204 -62c-37 0 -78 1 -118 11c-32 8 -63 24 -87 51
c-46 51 -53 126 -53 214v318zM398 682c0 24 0 49 -11 61c-8 9 -28 9 -49 9s-42 0 -50 -9c-11 -12 -11 -37 -11 -61s0 -49 11 -61c8 -9 29 -9 50 -9s41 0 49 9c11 12 11 37 11 61zM462 687v-10c0 -39 -4 -70 -26 -94c-25 -27 -55 -31 -97 -31h-3c-41 0 -72 4 -97 31
c-22 24 -26 55 -26 94v10c0 39 4 70 26 94c25 27 55 31 97 31h3c42 0 72 -4 97 -31c22 -24 26 -55 26 -94z" />
    <glyph glyph-name="tcedilla" unicode="&#x163;" horiz-adv-x="526" 
d="M32 390c-18 0 -32 13 -32 30s14 30 32 30h462c18 0 32 -13 32 -30s-14 -30 -32 -30h-199v-372c0 -16 -14 -30 -32 -30s-32 14 -32 30v372h-199zM290 -39c18 0 32 -14 32 -30c0 -4 -2 -9 -4 -13l-53 -96c-5 -10 -16 -17 -28 -17c-18 0 -32 14 -32 30c0 4 1 9 3 13l53 96
c5 10 17 17 29 17z" />
    <glyph glyph-name="ucircumflex" unicode="&#xfb;" horiz-adv-x="607" 
d="M80 432c0 16 14 30 32 30s32 -14 32 -30v-207c0 -59 3 -116 31 -146c26 -28 74 -31 129 -31s102 3 128 31c28 30 31 87 31 146v207c0 16 14 30 32 30s32 -14 32 -30v-213c0 -74 -6 -136 -46 -179c-43 -47 -100 -52 -177 -52s-135 5 -178 52c-40 43 -46 105 -46 179v213z
M179 490c-18 0 -32 14 -32 30c0 8 3 16 9 21l125 112c6 5 15 8 23 8s16 -3 22 -8l125 -112c6 -5 10 -13 10 -21c0 -16 -14 -30 -32 -30c-9 0 -17 4 -23 9l-102 92l-103 -92c-6 -5 -13 -9 -22 -9z" />
    <glyph glyph-name="Egrave" unicode="&#xc8;" horiz-adv-x="630" 
d="M144 240v-180h386c18 0 32 -14 32 -30s-14 -30 -32 -30h-418c-18 0 -32 14 -32 30v540c0 16 14 30 32 30h418c18 0 32 -14 32 -30s-14 -30 -32 -30h-386v-240h326c18 0 32 -14 32 -30s-14 -30 -32 -30h-326zM187 782c0 16 14 30 32 30c8 0 15 -3 20 -7l151 -112
c7 -5 12 -14 12 -23c0 -16 -14 -30 -32 -30c-8 0 -16 3 -21 7l-151 112c-7 5 -11 14 -11 23z" />
    <glyph glyph-name="j" unicode="j" horiz-adv-x="364" 
d="M32 -12c-18 0 -32 14 -32 30s14 30 32 30c8 0 17 -1 25 -1c56 0 104 3 131 32c29 30 32 86 32 146v195c0 16 14 30 32 30s32 -14 32 -30v-201c0 -75 -7 -136 -48 -179c-43 -44 -98 -52 -171 -52h-33z" />
    <glyph glyph-name="Oacute" unicode="&#xd3;" 
d="M338 552c-83 0 -152 -6 -191 -51c-43 -50 -47 -139 -47 -231c0 -77 4 -144 44 -181c41 -39 114 -41 194 -41s152 2 193 41c40 37 45 104 45 181c0 92 -5 181 -48 231c-39 45 -107 51 -190 51zM345 -12h-15c-95 0 -177 9 -231 60s-63 128 -63 222v6c0 106 6 200 60 262
c53 60 141 74 242 74c100 0 189 -14 241 -74c54 -62 61 -156 61 -262v-6c0 -94 -10 -171 -64 -222s-136 -60 -231 -60zM289 640c-18 0 -32 14 -32 30c0 9 5 18 12 23l151 112c5 4 12 7 20 7c18 0 32 -14 32 -30c0 -9 -5 -18 -12 -23l-151 -112c-5 -4 -12 -7 -20 -7z" />
    <glyph glyph-name="ae" unicode="&#xe6;" horiz-adv-x="891" 
d="M144 195v-177c0 -16 -14 -30 -32 -30s-32 14 -32 30v207c0 80 25 148 82 181c69 41 176 44 279 44h350c18 0 32 -14 32 -30s-14 -30 -32 -30h-313v-135h253c18 0 32 -14 32 -30s-14 -30 -32 -30h-253v-135h313c18 0 32 -14 32 -30s-14 -30 -32 -30h-345
c-18 0 -32 14 -32 30v165h-270zM146 255h268v135c-80 0 -168 -5 -218 -34c-31 -18 -46 -56 -50 -101z" />
    <glyph glyph-name="c" unicode="c" horiz-adv-x="567" 
d="M467 450c18 0 32 -14 32 -30s-14 -30 -32 -30h-155c-70 0 -141 -2 -180 -32c-32 -25 -39 -76 -39 -133s7 -108 39 -133c39 -30 110 -32 180 -32h155c18 0 32 -14 32 -30s-14 -30 -32 -30h-161c-85 0 -164 5 -216 46c-49 38 -61 102 -61 179s12 141 61 179
c52 41 131 46 216 46h161z" />
    <glyph glyph-name="Lcaron" unicode="&#x13d;" horiz-adv-x="540" 
d="M144 60h364c18 0 32 -14 32 -30s-14 -30 -32 -30h-396c-18 0 -32 14 -32 30v540c0 16 14 30 32 30s32 -14 32 -30v-510zM311 330c-17 0 -32 13 -32 30c0 2 1 3 1 5l45 222c3 14 15 25 31 25c17 0 32 -13 32 -30v-5l-45 -222c-3 -14 -16 -25 -32 -25z" />
    <glyph glyph-name="D" unicode="D" horiz-adv-x="630" 
d="M80 30v540c0 16 14 30 32 30h172c107 0 188 -8 247 -71c55 -60 63 -148 63 -253v-6c0 -91 -11 -167 -66 -214c-57 -49 -142 -56 -238 -56h-178c-18 0 -32 14 -32 30zM144 540v-480h140c81 0 158 3 201 40c39 34 45 97 45 170c0 90 -4 174 -48 221c-42 45 -112 49 -198 49
h-140z" />
    <glyph glyph-name="icircumflex" unicode="&#xee;" horiz-adv-x="243" 
d="M154 18c0 -16 -14 -30 -32 -30s-32 14 -32 30v414c0 16 14 30 32 30s32 -14 32 -30v-414zM-4 490c-18 0 -32 14 -32 30c0 8 4 16 10 21l125 112c6 5 15 8 23 8s16 -3 22 -8l125 -112c6 -5 9 -13 9 -21c0 -16 -14 -30 -32 -30c-9 0 -16 4 -22 9l-102 92l-103 -92
c-6 -5 -14 -9 -23 -9z" />
    <glyph glyph-name="gbreve" unicode="&#x11f;" horiz-adv-x="567" 
d="M454 450c18 0 32 -14 32 -30s-14 -30 -32 -30h-142c-70 0 -141 -2 -180 -32c-32 -25 -39 -76 -39 -133s7 -108 39 -133c39 -30 110 -32 180 -32h110v135h-110c-18 0 -32 14 -32 30s14 30 32 30h142c18 0 32 -14 32 -30v-195c0 -16 -14 -30 -32 -30h-148
c-85 0 -164 5 -216 46c-49 38 -61 102 -61 179s12 141 61 179c52 41 131 46 216 46h148zM289 490h-11c-47 0 -88 5 -117 31s-35 64 -35 111c0 16 14 30 32 30s32 -14 32 -30c0 -28 2 -55 16 -68c15 -13 46 -14 78 -14s62 0 77 14c14 13 15 40 15 68c0 16 14 30 32 30
s32 -14 32 -30c0 -47 -5 -85 -34 -111s-69 -31 -117 -31z" />
    <glyph glyph-name="ij" unicode="&#x133;" horiz-adv-x="607" 
d="M154 18c0 -16 -14 -30 -32 -30s-32 14 -32 30v414c0 16 14 30 32 30s32 -14 32 -30v-414zM276 -12c-18 0 -32 14 -32 30s14 30 32 30c8 0 16 -1 24 -1c56 0 104 3 131 32c29 30 32 86 32 146v195c0 16 14 30 32 30s32 -14 32 -30v-201c0 -75 -7 -136 -48 -179
c-43 -44 -98 -52 -171 -52h-32z" />
    <glyph glyph-name="n" unicode="n" horiz-adv-x="607" 
d="M144 18c0 -16 -14 -30 -32 -30s-32 14 -32 30v414c0 16 14 30 32 30c9 0 17 -4 23 -9l328 -304v283c0 16 14 30 32 30s32 -14 32 -30v-414c0 -16 -14 -30 -32 -30s-32 14 -32 30v47l-319 295v-342z" />
    <glyph glyph-name="percent" unicode="%" horiz-adv-x="720" 
d="M144 -12c-18 0 -32 14 -32 30c0 6 2 12 6 17l432 564c6 8 15 13 26 13c18 0 32 -14 32 -30c0 -6 -2 -12 -6 -17l-432 -564c-6 -8 -15 -13 -26 -13zM260 480c0 25 0 50 -12 61c-11 10 -32 11 -56 11h-24c-24 0 -45 -1 -56 -11c-12 -11 -12 -36 -12 -61s0 -50 12 -61
c11 -10 32 -11 56 -11h24c24 0 45 1 56 11c12 11 12 36 12 61zM174 612h12c44 0 80 -5 106 -29c27 -24 32 -59 32 -103s-5 -79 -32 -103c-26 -24 -62 -29 -106 -29h-12c-44 0 -80 5 -106 29c-27 24 -32 59 -32 103s5 79 32 103c26 24 62 29 106 29zM620 120
c0 25 0 50 -12 61c-11 10 -32 11 -56 11h-24c-24 0 -45 -1 -56 -11c-12 -11 -12 -36 -12 -61s0 -50 12 -61c11 -10 32 -11 56 -11h24c24 0 45 1 56 11c12 11 12 36 12 61zM534 252h12c44 0 80 -5 106 -29c27 -24 32 -59 32 -103s-5 -79 -32 -103c-26 -24 -62 -29 -106 -29
h-12c-44 0 -80 5 -106 29c-27 24 -32 59 -32 103s5 79 32 103c26 24 62 29 106 29z" />
    <glyph glyph-name="q" unicode="q" horiz-adv-x="607" 
d="M494 103c18 30 21 75 21 122c0 62 -6 116 -39 144c-37 31 -103 33 -172 33s-136 -2 -173 -33c-33 -28 -38 -82 -38 -144s5 -116 38 -144c37 -31 104 -33 173 -33c52 0 105 0 142 15l50 -42c-47 -27 -118 -33 -186 -33h-13c-84 0 -159 7 -209 50c-49 41 -59 107 -59 187
s10 146 59 187c50 43 125 50 209 50h13c84 0 160 -7 210 -50c49 -41 59 -107 59 -187c0 -60 -8 -124 -37 -163zM365 146c0 16 14 29 32 29c8 0 15 -2 21 -7l76 -65c-11 -18 -27 -32 -48 -40l-71 61c-6 5 -10 13 -10 22zM496 21c18 10 34 25 46 41l26 -22c6 -5 11 -13 11 -22
c0 -16 -14 -30 -32 -30c-8 0 -16 3 -22 8z" />
    <glyph glyph-name="Racute" unicode="&#x154;" horiz-adv-x="630" 
d="M80 18v552c0 16 14 30 32 30h257c67 0 128 -5 170 -37c40 -31 51 -81 51 -143s-11 -112 -51 -143c-32 -25 -68 -32 -115 -35l160 -207c4 -5 6 -11 6 -17c0 -16 -14 -30 -32 -30c-11 0 -21 5 -27 13l-185 239h-202v-222c0 -16 -14 -30 -32 -30s-32 14 -32 30zM266 640
c-18 0 -32 14 -32 30c0 9 5 18 12 23l151 112c5 4 13 7 21 7c18 0 32 -14 32 -30c0 -9 -5 -18 -12 -23l-151 -112c-5 -4 -13 -7 -21 -7z" />
    <glyph glyph-name="x" unicode="x" horiz-adv-x="526" 
d="M29 432c0 16 14 30 32 30c9 0 18 -4 24 -10l178 -183l179 183c6 6 15 10 24 10c18 0 32 -14 32 -30c0 -8 -3 -15 -8 -20l-184 -187l184 -187c5 -5 8 -12 8 -20c0 -16 -14 -30 -32 -30c-9 0 -18 4 -24 10l-179 183l-178 -183c-6 -6 -15 -10 -24 -10c-18 0 -32 14 -32 30
c0 8 3 15 8 20l183 187l-183 187c-5 5 -8 12 -8 20z" />
    <glyph glyph-name="S" unicode="S" horiz-adv-x="630" 
d="M495 600c18 0 32 -14 32 -30s-14 -30 -32 -30h-250c-44 0 -80 -2 -99 -24c-22 -26 -24 -76 -24 -126c0 -31 3 -60 20 -73c21 -16 63 -17 103 -17h209c38 0 73 -2 98 -21c24 -18 31 -47 31 -81c0 -54 -1 -110 -23 -148c-24 -41 -72 -50 -106 -50h-364c-18 0 -32 14 -32 30
s14 30 32 30h364c27 0 44 6 50 17c15 26 15 79 15 121c0 14 0 30 -7 35c-9 6 -27 7 -45 7h-228c-55 0 -104 4 -139 31c-33 26 -42 68 -42 119v5c0 64 5 118 38 157c33 38 86 48 149 48h250z" />
    <glyph glyph-name="A" unicode="A" 
d="M530 240h-386v-222c0 -16 -14 -30 -32 -30s-32 14 -32 30v252c0 102 5 202 51 266c50 69 139 76 207 76s156 -7 206 -76c46 -64 50 -164 50 -266v-252c0 -16 -14 -30 -32 -30s-32 14 -32 30v222zM145 300h385c-1 79 -6 158 -39 203c-29 40 -86 49 -153 49
s-125 -9 -154 -49c-33 -45 -38 -124 -39 -203z" />
    <glyph glyph-name="Y" unicode="Y" horiz-adv-x="697" 
d="M80 582c0 16 14 30 32 30s32 -14 32 -30v-119c0 -57 6 -107 37 -132c36 -29 102 -31 168 -31s132 2 168 31c31 25 36 75 36 132v119c0 16 14 30 32 30s32 -14 32 -30v-119c0 -76 -11 -139 -58 -177c-45 -37 -105 -44 -178 -45v-223c0 -16 -14 -30 -32 -30s-32 14 -32 30
v223c-73 1 -133 8 -178 45c-47 38 -59 101 -59 177v119z" />
    <glyph glyph-name="oslash" unicode="&#xf8;" horiz-adv-x="607" 
d="M446 387c-37 15 -90 15 -142 15c-69 0 -136 -2 -173 -33c-33 -28 -38 -82 -38 -144c0 -47 2 -92 20 -122l-48 -41c-13 17 -21 36 -26 55c-10 36 -10 74 -10 108c0 80 10 146 59 187c50 43 125 50 209 50h13c68 0 139 -6 186 -33zM65 62c12 -16 28 -31 46 -41l-29 -25
c-6 -5 -13 -8 -21 -8c-18 0 -32 14 -32 30c0 9 4 17 10 22zM542 388c30 -39 37 -103 37 -163c0 -80 -10 -146 -59 -187c-50 -43 -126 -50 -210 -50h-13c-68 0 -139 6 -186 33l50 42c37 -15 91 -15 143 -15c69 0 135 2 172 33c33 28 39 82 39 144c0 47 -3 92 -21 122z
M542 388c-12 16 -28 31 -46 41l29 25c6 5 14 8 22 8c18 0 32 -14 32 -30c0 -9 -5 -17 -11 -22zM494 347l-333 -284c-21 8 -37 22 -48 40l333 284c21 -8 37 -22 48 -40z" />
    <glyph glyph-name="dieresis" unicode="&#xa8;" horiz-adv-x="360" 
d="M144 552c0 -24 -20 -42 -45 -42s-45 18 -45 42s20 42 45 42s45 -18 45 -42zM306 552c0 -24 -20 -42 -45 -42s-45 18 -45 42s20 42 45 42s45 -18 45 -42z" />
    <glyph glyph-name="o" unicode="o" horiz-adv-x="607" 
d="M304 402c-69 0 -136 -2 -173 -33c-33 -28 -38 -82 -38 -144s5 -116 38 -144c37 -31 104 -33 173 -33s135 2 172 33c33 28 39 82 39 144s-6 116 -39 144c-37 31 -103 33 -172 33zM297 462h13c84 0 160 -7 210 -50c49 -41 59 -107 59 -187s-10 -146 -59 -187
c-50 -43 -126 -50 -210 -50h-13c-84 0 -159 7 -209 50c-49 41 -59 107 -59 187s10 146 59 187c50 43 125 50 209 50z" />
    <glyph glyph-name="sacute" unicode="&#x15b;" horiz-adv-x="567" 
d="M446 450c18 0 32 -14 32 -30s-14 -30 -32 -30h-226c-36 0 -72 0 -90 -15c-16 -13 -17 -42 -17 -72c0 -16 3 -32 12 -37c20 -11 61 -11 95 -11h189c34 0 66 -2 89 -18c23 -15 30 -41 30 -71c0 -46 -1 -92 -22 -124c-24 -37 -68 -42 -97 -42h-328c-18 0 -32 14 -32 30
s14 30 32 30h328c25 0 37 5 42 12c13 20 13 61 13 94c0 17 -4 23 -4 23c-9 6 -31 6 -49 6h-191c-48 0 -95 1 -128 20c-30 17 -43 50 -43 88c0 49 7 89 38 115c32 27 76 32 127 32h232zM235 490c-18 0 -32 14 -32 30c0 9 5 18 12 23l151 112c5 4 12 7 20 7
c18 0 32 -14 32 -30c0 -9 -5 -18 -12 -23l-151 -112c-5 -4 -12 -7 -20 -7z" />
    <glyph glyph-name="J" unicode="J" horiz-adv-x="405" 
d="M32 -12c-18 0 -32 14 -32 30s14 30 32 30c9 0 17 -1 26 -1c70 0 129 5 163 41c36 38 39 107 39 182v300c0 16 14 30 32 30s32 -14 32 -30v-306c0 -89 -7 -164 -55 -215c-49 -52 -114 -61 -201 -61h-36z" />
    <glyph glyph-name="dotaccent" unicode="&#x2d9;" horiz-adv-x="180" 
d="M134 592c0 -24 -19 -42 -44 -42s-44 18 -44 42s19 42 44 42s44 -18 44 -42z" />
    <glyph glyph-name="y" unicode="y" horiz-adv-x="628" 
d="M80 432c0 16 14 30 32 30s32 -14 32 -30v-79c0 -33 7 -65 27 -78c31 -20 91 -20 143 -20s112 0 143 20c20 13 26 45 26 78v79c0 16 14 30 32 30s32 -14 32 -30v-79c0 -56 -15 -102 -54 -127s-89 -29 -147 -30v-178c0 -16 -14 -30 -32 -30s-32 14 -32 30v178
c-58 1 -108 5 -147 30s-55 71 -55 127v79z" />
    <glyph glyph-name="yacute" unicode="&#xfd;" horiz-adv-x="628" 
d="M80 432c0 16 14 30 32 30s32 -14 32 -30v-79c0 -33 7 -65 27 -78c31 -20 91 -20 143 -20s112 0 143 20c20 13 26 45 26 78v79c0 16 14 30 32 30s32 -14 32 -30v-79c0 -56 -15 -102 -54 -127s-89 -29 -147 -30v-178c0 -16 -14 -30 -32 -30s-32 14 -32 30v178
c-58 1 -108 5 -147 30s-55 71 -55 127v79zM265 490c-18 0 -32 14 -32 30c0 9 5 18 12 23l151 112c5 4 12 7 20 7c18 0 32 -14 32 -30c0 -9 -5 -18 -12 -23l-151 -112c-5 -4 -12 -7 -20 -7z" />
    <glyph glyph-name="dotlessj" unicode="&#x237;" horiz-adv-x="364" 
d="M32 -12c-18 0 -32 14 -32 30s14 30 32 30c8 0 17 -1 25 -1c56 0 104 3 131 32c29 30 32 86 32 146v195c0 16 14 30 32 30s32 -14 32 -30v-201c0 -75 -7 -136 -48 -179c-43 -44 -98 -52 -171 -52h-33z" />
    <glyph glyph-name="braceleft" unicode="{" horiz-adv-x="360" 
d="M107 202c36 -36 37 -116 37 -187v-11c0 -49 3 -101 24 -127c17 -21 51 -25 92 -25c18 0 32 -13 32 -29s-14 -30 -32 -30c-61 0 -113 10 -144 48c-32 39 -36 95 -36 158v5c0 50 0 113 -14 148c-5 13 -18 21 -34 21c-18 0 -32 13 -32 29s14 30 32 30c16 0 29 8 34 21
c14 35 14 98 14 148v5c0 63 4 119 36 158c31 38 83 48 144 48c18 0 32 -14 32 -30s-14 -30 -32 -30c-41 0 -75 -3 -92 -24c-21 -26 -24 -78 -24 -127v-11c0 -71 -1 -152 -37 -188z" />
    <glyph glyph-name="numbersign" unicode="#" 
d="M90 105c-18 0 -32 13 -32 30s14 30 32 30h97l33 165h-130c-18 0 -32 13 -32 30s14 30 32 30h142l40 197c3 14 16 25 32 25c17 0 32 -13 32 -30c0 -2 -1 -3 -1 -5l-37 -187h137l40 197c3 14 15 25 31 25c17 0 32 -13 32 -30v-5l-38 -187h85c18 0 33 -13 33 -30
s-15 -30 -33 -30h-97l-33 -165h130c18 0 33 -13 33 -30s-15 -30 -33 -30h-142l-40 -197c-3 -14 -16 -25 -32 -25c-17 0 -32 13 -32 30c0 2 1 3 1 5l37 187h-137l-40 -197c-3 -14 -15 -25 -31 -25c-17 0 -32 13 -32 30v5l38 187h-85zM285 330l-33 -165h138l33 165h-138z" />
    <glyph glyph-name="quoteleft" unicode="&#x2018;" horiz-adv-x="225" 
d="M59 577c0 2 -1 3 -1 5c0 17 15 30 32 30c16 0 28 -11 31 -25l45 -222c0 -2 1 -3 1 -5c0 -17 -15 -30 -32 -30c-16 0 -28 11 -31 25z" />
    <glyph glyph-name="perthousandzero" horiz-adv-x="360" 
d="M260 120c0 25 0 50 -12 61c-11 10 -32 11 -56 11h-24c-24 0 -45 -1 -56 -11c-12 -11 -12 -36 -12 -61s0 -50 12 -61c11 -10 32 -11 56 -11h24c24 0 45 1 56 11c12 11 12 36 12 61zM174 252h12c44 0 80 -5 106 -29c27 -24 32 -59 32 -103s-5 -79 -32 -103
c-26 -24 -62 -29 -106 -29h-12c-44 0 -80 5 -106 29c-27 24 -32 59 -32 103s5 79 32 103c26 24 62 29 106 29z" />
    <glyph glyph-name="lcaron" unicode="&#x13e;" horiz-adv-x="486" 
d="M144 60h310c18 0 32 -14 32 -30s-14 -30 -32 -30h-342c-18 0 -32 14 -32 30v390c0 16 14 30 32 30s32 -14 32 -30v-360zM278 180c-17 0 -32 13 -32 30v5l45 222c3 14 16 25 32 25c17 0 32 -13 32 -30c0 -2 -1 -3 -1 -5l-45 -222c-3 -14 -15 -25 -31 -25z" />
    <glyph glyph-name="three" unicode="3" horiz-adv-x="495" 
d="M384 280c42 -25 53 -70 53 -130c0 -50 -6 -90 -36 -117s-73 -33 -123 -33h-178c-18 0 -32 14 -32 30s14 30 32 30h172c35 0 68 0 84 15c16 14 17 44 17 75s-1 61 -17 75c-16 15 -49 15 -84 15h-106c-18 0 -32 14 -32 30s14 30 32 30h106c33 0 53 5 62 17
c16 22 16 65 16 103s0 81 -16 103c-9 12 -29 17 -62 17h-172c-18 0 -32 14 -32 30s14 30 32 30h172c33 0 85 -2 115 -43c25 -34 27 -84 27 -137c0 -55 -2 -106 -30 -140z" />
    <glyph glyph-name="Ucircumflex" unicode="&#xdb;" 
d="M80 582c0 16 14 30 32 30s32 -14 32 -30v-312c0 -73 3 -144 38 -183c32 -36 89 -39 156 -39s123 3 155 39c35 39 37 110 37 183v312c0 16 14 30 32 30s32 -14 32 -30v-318c0 -88 -6 -163 -52 -214c-45 -51 -118 -62 -204 -62c-37 0 -78 1 -118 11c-32 8 -63 24 -87 51
c-46 51 -53 126 -53 214v318zM212 640c-18 0 -32 14 -32 30c0 8 4 16 10 21l125 112c6 5 14 8 22 8s17 -3 23 -8l125 -112c6 -5 9 -13 9 -21c0 -16 -14 -30 -32 -30c-9 0 -16 4 -22 9l-102 92l-103 -92c-6 -5 -14 -9 -23 -9z" />
    <glyph glyph-name="ohungarumlaut" unicode="&#x151;" horiz-adv-x="607" 
d="M304 402c-69 0 -136 -2 -173 -33c-33 -28 -38 -82 -38 -144s5 -116 38 -144c37 -31 104 -33 173 -33s135 2 172 33c33 28 39 82 39 144s-6 116 -39 144c-37 31 -103 33 -172 33zM297 462h13c84 0 160 -7 210 -50c49 -41 59 -107 59 -187s-10 -146 -59 -187
c-50 -43 -126 -50 -210 -50h-13c-84 0 -159 7 -209 50c-49 41 -59 107 -59 187s10 146 59 187c50 43 125 50 209 50zM304 662c18 0 32 -14 32 -30c0 -7 -3 -14 -7 -19l-99 -112c-6 -7 -15 -11 -25 -11c-18 0 -32 14 -32 30c0 7 3 14 7 19l99 112c6 7 15 11 25 11zM502 662
c18 0 32 -14 32 -30c0 -7 -3 -14 -7 -19l-99 -112c-6 -7 -15 -11 -25 -11c-18 0 -32 14 -32 30c0 7 3 14 7 19l99 112c6 7 15 11 25 11z" />
    <glyph glyph-name="bracketleft" unicode="[" horiz-adv-x="360" 
d="M260 600c18 0 32 -14 32 -30s-14 -30 -32 -30h-116v-675h116c18 0 32 -14 32 -30s-14 -30 -32 -30h-148c-18 0 -32 14 -32 30v735c0 16 14 30 32 30h148z" />
    <glyph glyph-name="oacute" unicode="&#xf3;" horiz-adv-x="607" 
d="M304 402c-69 0 -136 -2 -173 -33c-33 -28 -38 -82 -38 -144s5 -116 38 -144c37 -31 104 -33 173 -33s135 2 172 33c33 28 39 82 39 144s-6 116 -39 144c-37 31 -103 33 -172 33zM297 462h13c84 0 160 -7 210 -50c49 -41 59 -107 59 -187s-10 -146 -59 -187
c-50 -43 -126 -50 -210 -50h-13c-84 0 -159 7 -209 50c-49 41 -59 107 -59 187s10 146 59 187c50 43 125 50 209 50zM255 490c-18 0 -32 14 -32 30c0 9 5 18 12 23l151 112c5 4 12 7 20 7c18 0 32 -14 32 -30c0 -9 -5 -18 -12 -23l-151 -112c-5 -4 -12 -7 -20 -7z" />
    <glyph glyph-name="nine" unicode="9" horiz-adv-x="495" 
d="M235 612h13c61 0 112 -7 147 -41c35 -33 42 -80 42 -140v-5c0 16 -14 30 -32 30s-32 -14 -32 -30c0 25 0 50 -5 69c-8 34 -28 50 -68 55c-17 2 -37 2 -58 2c-44 0 -86 -1 -108 -22s-23 -61 -23 -104c0 -72 7 -116 73 -124c17 -2 37 -2 58 -2c44 0 85 1 107 22
s24 61 24 104c0 -53 0 -111 -5 -165c-31 -16 -78 -21 -120 -21h-13c-61 0 -112 7 -147 41c-35 33 -41 80 -41 140v10c0 60 6 107 41 140c35 34 86 41 147 41zM368 261c53 26 69 84 69 157c0 -116 -2 -241 -43 -321c-37 -72 -119 -97 -191 -97h-91c-18 0 -32 14 -32 30
s14 30 32 30h91c59 0 111 20 133 62c18 36 27 85 32 139zM437 418v8v-8z" />
    <glyph glyph-name="backslash" unicode="\" horiz-adv-x="450" 
d="M60 573c-1 3 -2 6 -2 9c0 16 15 30 32 30c14 0 26 -9 30 -21l270 -759c1 -3 2 -6 2 -9c0 -16 -15 -30 -32 -30c-14 0 -26 9 -30 21z" />
    <glyph glyph-name="atilde" unicode="&#xe3;" horiz-adv-x="607" 
d="M463 195h-319v-177c0 -16 -14 -30 -32 -30s-32 14 -32 30v213c0 74 6 136 46 179c43 47 101 52 178 52s134 -5 177 -52c40 -43 46 -105 46 -179v-213c0 -16 -14 -30 -32 -30s-32 14 -32 30v177zM221 591c-33 0 -55 -36 -55 -71c0 -16 -14 -30 -32 -30s-32 14 -32 30
c0 65 47 130 121 130c73 0 97 -66 140 -93c8 -5 16 -8 24 -8c33 0 55 36 55 71c0 16 14 30 32 30s32 -14 32 -30c0 -65 -47 -130 -121 -130c-73 0 -97 66 -140 93c-8 5 -16 8 -24 8zM145 255h318c-1 48 -8 91 -31 116c-26 28 -73 31 -128 31s-103 -3 -129 -31
c-23 -25 -29 -68 -30 -116z" />
    <glyph glyph-name="Aacute" unicode="&#xc1;" 
d="M530 240h-386v-222c0 -16 -14 -30 -32 -30s-32 14 -32 30v252c0 102 5 202 51 266c50 69 139 76 207 76s156 -7 206 -76c46 -64 50 -164 50 -266v-252c0 -16 -14 -30 -32 -30s-32 14 -32 30v222zM289 640c-18 0 -32 14 -32 30c0 9 5 18 12 23l151 112c5 4 12 7 20 7
c18 0 32 -14 32 -30c0 -9 -5 -18 -12 -23l-151 -112c-5 -4 -12 -7 -20 -7zM145 300h385c-1 79 -6 158 -39 203c-29 40 -86 49 -153 49s-125 -9 -154 -49c-33 -45 -38 -124 -39 -203z" />
    <glyph glyph-name="ccedilla" unicode="&#xe7;" horiz-adv-x="567" 
d="M467 450c18 0 32 -14 32 -30s-14 -30 -32 -30h-155c-70 0 -141 -2 -180 -32c-32 -25 -39 -76 -39 -133s7 -108 39 -133c39 -30 110 -32 180 -32h155c18 0 32 -14 32 -30s-14 -30 -32 -30h-130l-6 -20c18 -2 34 -4 50 -15c23 -15 32 -40 32 -71c0 -30 -9 -57 -32 -72
c-24 -15 -55 -17 -90 -17h-37c-18 0 -32 14 -32 30s14 30 32 30h38c19 0 43 0 53 6c0 0 4 6 4 23s-4 22 -4 22c-10 6 -34 6 -53 6h-2c-17 0 -32 14 -32 30c0 2 0 4 1 7l12 42c-73 1 -135 9 -181 45c-49 38 -61 102 -61 179s12 141 61 179c52 41 131 46 216 46h161z" />
    <glyph glyph-name="Lslash" unicode="&#x141;" horiz-adv-x="585" 
d="M144 60h341c18 0 32 -14 32 -30s-14 -30 -32 -30h-373c-18 0 -32 14 -32 30v210l-26 -22c-6 -5 -14 -8 -22 -8c-18 0 -32 14 -32 30c0 9 5 17 11 22l69 58v250c0 16 14 30 32 30s32 -14 32 -30v-196l98 81c6 5 13 8 21 8c18 0 32 -13 32 -29c0 -9 -4 -17 -10 -22
l-141 -118v-234z" />
    <glyph glyph-name="Sacute" unicode="&#x15a;" horiz-adv-x="630" 
d="M495 600c18 0 32 -14 32 -30s-14 -30 -32 -30h-250c-44 0 -80 -2 -99 -24c-22 -26 -24 -76 -24 -126c0 -31 3 -60 20 -73c21 -16 63 -17 103 -17h209c38 0 73 -2 98 -21c24 -18 31 -47 31 -81c0 -54 -1 -110 -23 -148c-24 -41 -72 -50 -106 -50h-364c-18 0 -32 14 -32 30
s14 30 32 30h364c27 0 44 6 50 17c15 26 15 79 15 121c0 14 0 30 -7 35c-9 6 -27 7 -45 7h-228c-55 0 -104 4 -139 31c-33 26 -42 68 -42 119v5c0 64 5 118 38 157c33 38 86 48 149 48h250zM266 640c-18 0 -32 14 -32 30c0 9 5 18 12 23l151 112c5 4 13 7 21 7
c18 0 32 -14 32 -30c0 -9 -5 -18 -12 -23l-151 -112c-5 -4 -13 -7 -21 -7z" />
    <glyph glyph-name="visiblespace" unicode="&#x2420;" horiz-adv-x="270" 
d="M23 -18c0 16 14 30 32 30s32 -14 32 -30v-117h96v117c0 16 14 30 32 30s32 -14 32 -30v-147c0 -16 -14 -30 -32 -30h-160c-18 0 -32 14 -32 30v147z" />
    <glyph glyph-name="aring" unicode="&#xe5;" horiz-adv-x="607" 
d="M305 402c50 0 89 10 109 48c24 -7 48 -19 67 -40c40 -43 46 -105 46 -179v-213c0 -16 -14 -30 -32 -30s-32 14 -32 30v177h-319v-177c0 -16 -14 -30 -32 -30s-32 14 -32 30v213c0 74 6 136 46 179c19 21 43 33 67 40c20 -37 59 -48 109 -48c-55 0 -101 -3 -127 -31
c-23 -25 -29 -68 -30 -116h318c-1 48 -8 91 -31 116c-26 28 -72 31 -127 31zM302 662h3c41 0 72 -4 97 -31c23 -25 26 -58 26 -99c0 -28 -3 -61 -14 -82c-31 9 -74 12 -110 12c21 0 41 0 49 9c11 12 11 37 11 61s0 49 -11 61c-8 9 -28 9 -49 9s-41 0 -49 -9
c-11 -12 -11 -37 -11 -61s0 -49 11 -61c8 -9 28 -9 49 -9c-36 0 -80 -3 -111 -12c-11 20 -13 50 -13 77v10c0 39 4 70 26 94c25 27 54 31 96 31z" />
    <glyph glyph-name="m" unicode="m" horiz-adv-x="729" 
d="M616 462c18 0 32 -14 32 -30v-414c0 -16 -14 -30 -32 -30s-32 14 -32 30v315l-193 -272c-6 -8 -16 -13 -27 -13s-20 5 -26 13l-194 272v-315c0 -16 -14 -30 -32 -30s-32 14 -32 30v414c0 16 14 30 32 30c11 0 21 -6 27 -14l225 -317l226 317c6 8 15 14 26 14z" />
    <glyph glyph-name="ograve" unicode="&#xf2;" horiz-adv-x="607" 
d="M304 402c-69 0 -136 -2 -173 -33c-33 -28 -38 -82 -38 -144s5 -116 38 -144c37 -31 104 -33 173 -33s135 2 172 33c33 28 39 82 39 144s-6 116 -39 144c-37 31 -103 33 -172 33zM297 462h13c84 0 160 -7 210 -50c49 -41 59 -107 59 -187s-10 -146 -59 -187
c-50 -43 -126 -50 -210 -50h-13c-84 0 -159 7 -209 50c-49 41 -59 107 -59 187s10 146 59 187c50 43 125 50 209 50zM169 632c0 16 14 30 32 30c8 0 15 -3 20 -7l151 -112c7 -5 12 -14 12 -23c0 -16 -14 -30 -32 -30c-8 0 -15 3 -20 7l-151 112c-7 5 -12 14 -12 23z" />
    <glyph glyph-name="Cacute" unicode="&#x106;" horiz-adv-x="630" 
d="M530 600c18 0 32 -14 32 -30s-14 -30 -32 -30h-184c-86 0 -156 -4 -198 -49c-44 -47 -48 -131 -48 -221c0 -73 6 -136 45 -170c43 -37 120 -40 201 -40h184c18 0 32 -14 32 -30s-14 -30 -32 -30h-190c-96 0 -182 7 -239 56c-55 47 -65 122 -65 214v6c0 104 8 194 63 253
c59 63 140 71 247 71h184zM266 640c-18 0 -32 14 -32 30c0 9 5 18 12 23l151 112c5 4 13 7 21 7c18 0 32 -14 32 -30c0 -9 -5 -18 -12 -23l-151 -112c-5 -4 -13 -7 -21 -7z" />
    <glyph glyph-name="six" unicode="6" horiz-adv-x="495" 
d="M259 -12h-12c-57 0 -109 5 -145 33c-35 27 -44 69 -44 123c0 -16 14 -30 32 -30s32 14 32 30c0 -33 3 -64 21 -78c22 -17 67 -18 110 -18s88 1 110 18c18 14 21 45 21 78s-3 64 -21 78c-22 17 -67 18 -110 18s-88 -1 -110 -18c-18 -14 -21 -45 -21 -78c0 44 0 91 2 137
c32 15 80 19 123 19h12c57 0 109 -5 145 -33c35 -27 44 -69 44 -123c0 -53 -9 -96 -44 -123c-36 -28 -87 -33 -145 -33zM124 281c-49 -24 -66 -70 -66 -137c0 123 1 264 43 353c35 73 116 103 191 103h90c18 0 32 -14 32 -30s-14 -30 -32 -30h-90c-59 0 -111 -22 -132 -67
c-23 -48 -32 -119 -36 -192z" />
    <glyph glyph-name="egrave" unicode="&#xe8;" horiz-adv-x="567" 
d="M144 195v-135h323c18 0 32 -14 32 -30s-14 -30 -32 -30h-355c-18 0 -32 14 -32 30v390c0 16 14 30 32 30h355c18 0 32 -14 32 -30s-14 -30 -32 -30h-323v-135h263c18 0 32 -14 32 -30s-14 -30 -32 -30h-263zM155 632c0 16 14 30 32 30c8 0 15 -3 20 -7l151 -112
c7 -5 12 -14 12 -23c0 -16 -14 -30 -32 -30c-8 0 -15 3 -20 7l-151 112c-7 5 -12 14 -12 23z" />
    <glyph glyph-name="cwm" horiz-adv-x="0" 
 />
    <glyph glyph-name="hyphen" unicode="-" horiz-adv-x="270" 
d="M32 248c-18 0 -32 13 -32 30s14 30 32 30h206c18 0 32 -13 32 -30s-14 -30 -32 -30h-206z" />
    <glyph glyph-name="scaron" unicode="&#x161;" horiz-adv-x="567" 
d="M446 450c18 0 32 -14 32 -30s-14 -30 -32 -30h-226c-36 0 -72 0 -90 -15c-16 -13 -17 -42 -17 -72c0 -16 3 -32 12 -37c20 -11 61 -11 95 -11h189c34 0 66 -2 89 -18c23 -15 30 -41 30 -71c0 -46 -1 -92 -22 -124c-24 -37 -68 -42 -97 -42h-328c-18 0 -32 14 -32 30
s14 30 32 30h328c25 0 37 5 42 12c13 20 13 61 13 94c0 17 -4 23 -4 23c-9 6 -31 6 -49 6h-191c-48 0 -95 1 -128 20c-30 17 -43 50 -43 88c0 49 7 89 38 115c32 27 76 32 127 32h232zM126 632c0 16 14 30 32 30c9 0 17 -4 23 -9l103 -92l102 92c6 5 13 9 22 9
c18 0 32 -14 32 -30c0 -8 -3 -16 -9 -21l-125 -112c-6 -5 -14 -8 -22 -8s-17 3 -23 8l-125 112c-6 5 -10 13 -10 21z" />
    <glyph glyph-name="Zacute" unicode="&#x179;" 
d="M562 60c18 0 32 -14 32 -30s-14 -30 -32 -30h-450c-18 0 -32 14 -32 30c0 7 3 13 7 18l411 492h-386c-18 0 -32 14 -32 30s14 30 32 30h450c18 0 32 -14 32 -30c0 -7 -2 -13 -6 -18l-411 -492h385zM289 640c-18 0 -32 14 -32 30c0 9 5 18 12 23l151 112c5 4 12 7 20 7
c18 0 32 -14 32 -30c0 -9 -5 -18 -12 -23l-151 -112c-5 -4 -12 -7 -20 -7z" />
    <glyph glyph-name="igrave" unicode="&#xec;" horiz-adv-x="243" 
d="M154 18c0 -16 -14 -30 -32 -30s-32 14 -32 30v414c0 16 14 30 32 30s32 -14 32 -30v-414zM-13 632c0 16 14 30 32 30c8 0 15 -3 20 -7l151 -112c7 -5 12 -14 12 -23c0 -16 -14 -30 -32 -30c-8 0 -15 3 -20 7l-151 112c-7 5 -12 14 -12 23z" />
    <glyph glyph-name="acircumflex" unicode="&#xe2;" horiz-adv-x="607" 
d="M463 195h-319v-177c0 -16 -14 -30 -32 -30s-32 14 -32 30v213c0 74 6 136 46 179c43 47 101 52 178 52s134 -5 177 -52c40 -43 46 -105 46 -179v-213c0 -16 -14 -30 -32 -30s-32 14 -32 30v177zM179 490c-18 0 -32 14 -32 30c0 8 3 16 9 21l125 112c6 5 15 8 23 8
s16 -3 22 -8l125 -112c6 -5 10 -13 10 -21c0 -16 -14 -30 -32 -30c-9 0 -17 4 -23 9l-102 92l-103 -92c-6 -5 -13 -9 -22 -9zM145 255h318c-1 48 -8 91 -31 116c-26 28 -73 31 -128 31s-103 -3 -129 -31c-23 -25 -29 -68 -30 -116z" />
    <glyph glyph-name="M" unicode="M" horiz-adv-x="810" 
d="M698 612c18 0 32 -14 32 -30v-564c0 -16 -14 -30 -32 -30s-32 14 -32 30v446l-233 -401c-5 -9 -16 -15 -28 -15s-23 6 -28 15l-233 401v-446c0 -16 -14 -30 -32 -30s-32 14 -32 30v564c0 16 14 30 32 30c12 0 24 -7 29 -16l264 -456l264 456c5 9 17 16 29 16z" />
    <glyph glyph-name="N" unicode="N" 
d="M144 18c0 -16 -14 -30 -32 -30s-32 14 -32 30v564c0 16 14 30 32 30c10 0 19 -4 25 -11l393 -441v422c0 16 14 30 32 30s32 -14 32 -30v-564c0 -16 -14 -30 -32 -30s-32 14 -32 30v49l-386 433v-482z" />
    <glyph glyph-name="at" unicode="@" horiz-adv-x="720" 
d="M356 612h8c107 0 191 -6 253 -66c58 -56 67 -138 67 -240v-108c0 -42 -2 -79 -25 -105c-22 -26 -58 -33 -99 -33s-77 7 -99 33c-18 22 -23 44 -25 75h-82c-43 0 -78 6 -103 30c-26 25 -31 59 -31 102s5 77 31 102c25 24 60 30 103 30h114c18 0 32 -14 32 -30v-204
c0 -26 1 -55 12 -68c8 -10 26 -10 48 -10s41 0 49 10c11 13 11 42 11 68v102c0 87 -4 162 -49 205c-46 44 -123 47 -211 47s-165 -3 -211 -47c-45 -43 -49 -118 -49 -205s4 -162 49 -205c46 -44 123 -47 211 -47c18 0 32 -14 32 -30s-14 -30 -32 -30h-5
c-107 0 -190 6 -252 66c-58 56 -67 138 -67 240v12c0 102 9 185 67 240c62 60 145 66 253 66z" />
    <glyph glyph-name="idieresis" unicode="&#xef;" horiz-adv-x="243" 
d="M154 18c0 -16 -14 -30 -32 -30s-32 14 -32 30v414c0 16 14 30 32 30s32 -14 32 -30v-414zM85 552c0 -24 -20 -42 -45 -42s-44 18 -44 42s19 42 44 42s45 -18 45 -42zM247 552c0 -24 -20 -42 -45 -42s-44 18 -44 42s19 42 44 42s45 -18 45 -42z" />
    <glyph glyph-name="colon" unicode=":" horiz-adv-x="225" 
d="M157 30c0 -24 -20 -42 -45 -42s-44 18 -44 42s19 42 44 42s45 -18 45 -42zM157 282c0 -24 -20 -42 -45 -42s-44 18 -44 42s19 42 44 42s45 -18 45 -42z" />
    <glyph glyph-name="l" unicode="l" horiz-adv-x="486" 
d="M144 60h310c18 0 32 -14 32 -30s-14 -30 -32 -30h-342c-18 0 -32 14 -32 30v390c0 16 14 30 32 30s32 -14 32 -30v-360z" />
    <glyph glyph-name="Iacute" unicode="&#xcd;" horiz-adv-x="270" 
d="M167 18c0 -16 -14 -30 -32 -30s-32 14 -32 30v564c0 16 14 30 32 30s32 -14 32 -30v-564zM86 640c-18 0 -32 14 -32 30c0 9 5 18 12 23l151 112c5 4 13 7 21 7c18 0 32 -14 32 -30c0 -9 -5 -18 -12 -23l-151 -112c-5 -4 -13 -7 -21 -7z" />
    <glyph glyph-name="two" unicode="2" horiz-adv-x="495" 
d="M414 425v-10c0 -55 -4 -101 -34 -134s-77 -41 -132 -41c-47 0 -83 -8 -99 -33c-21 -33 -26 -91 -27 -147h273c18 0 32 -14 32 -30s-14 -30 -32 -30h-305c-18 0 -32 14 -32 30c0 78 2 156 36 207c36 55 104 63 154 63c36 0 67 1 83 19c19 21 19 61 19 101s0 80 -19 101
c-16 18 -47 19 -83 19h-148c-18 0 -32 14 -32 30s14 30 32 30h148c55 0 102 -8 132 -41s34 -79 34 -134z" />
    <glyph glyph-name="zero" unicode="0" horiz-adv-x="495" 
d="M248 552c-45 0 -82 -15 -97 -45c-28 -55 -29 -155 -29 -237c0 -68 1 -146 27 -187c16 -26 53 -35 99 -35s82 9 98 35c26 41 27 119 27 187c0 82 -1 182 -29 237c-15 30 -51 45 -96 45zM248 612c58 0 125 -21 155 -80c33 -66 34 -170 34 -262c0 -81 -3 -162 -36 -216
c-35 -56 -102 -66 -153 -66s-119 10 -154 66c-34 54 -36 135 -36 216c0 92 1 196 34 262c30 59 98 80 156 80z" />
    <glyph glyph-name="g" unicode="g" horiz-adv-x="567" 
d="M454 450c18 0 32 -14 32 -30s-14 -30 -32 -30h-142c-70 0 -141 -2 -180 -32c-32 -25 -39 -76 -39 -133s7 -108 39 -133c39 -30 110 -32 180 -32h110v135h-110c-18 0 -32 14 -32 30s14 30 32 30h142c18 0 32 -14 32 -30v-195c0 -16 -14 -30 -32 -30h-148
c-85 0 -164 5 -216 46c-49 38 -61 102 -61 179s12 141 61 179c52 41 131 46 216 46h148z" />
    <glyph glyph-name="Tcedilla" unicode="&#x162;" horiz-adv-x="585" 
d="M32 540c-18 0 -32 13 -32 30s14 30 32 30h520c18 0 33 -13 33 -30s-15 -30 -33 -30h-228v-522c0 -16 -14 -30 -32 -30s-32 14 -32 30v522h-228zM322 -39c18 0 32 -14 32 -30c0 -5 -1 -9 -4 -14l-59 -96c-5 -9 -16 -16 -28 -16c-18 0 -32 14 -32 30c0 5 1 9 4 14l59 96
c5 9 16 16 28 16z" />
    <glyph glyph-name="Tcaron" unicode="&#x164;" horiz-adv-x="585" 
d="M32 540c-18 0 -32 13 -32 30s14 30 32 30h520c18 0 33 -13 33 -30s-15 -30 -33 -30h-228v-522c0 -16 -14 -30 -32 -30s-32 14 -32 30v522h-228zM136 782c0 16 14 30 32 30c9 0 16 -4 22 -9l102 -92l103 92c6 5 14 9 23 9c18 0 32 -14 32 -30c0 -8 -4 -16 -10 -21
l-125 -112c-6 -5 -15 -8 -23 -8s-16 3 -22 8l-125 112c-6 5 -9 13 -9 21z" />
    <glyph glyph-name="hungarumlaut" unicode="&#x2dd;" horiz-adv-x="495" 
d="M198 662c18 0 32 -14 32 -30c0 -7 -3 -14 -7 -19l-99 -112c-6 -7 -15 -11 -25 -11c-18 0 -32 14 -32 30c0 7 3 14 7 19l99 112c6 7 15 11 25 11zM396 662c18 0 32 -14 32 -30c0 -7 -3 -14 -7 -19l-99 -112c-6 -7 -15 -11 -25 -11c-18 0 -32 14 -32 30c0 7 3 14 7 19
l99 112c6 7 15 11 25 11z" />
    <glyph glyph-name="Lacute" unicode="&#x139;" horiz-adv-x="540" 
d="M144 60h364c18 0 32 -14 32 -30s-14 -30 -32 -30h-396c-18 0 -32 14 -32 30v540c0 16 14 30 32 30s32 -14 32 -30v-510zM64 640c-18 0 -32 14 -32 30c0 9 5 18 12 23l151 112c5 4 12 7 20 7c18 0 32 -14 32 -30c0 -9 -5 -18 -12 -23l-151 -112c-5 -4 -12 -7 -20 -7z" />
    <glyph glyph-name="quotesinglbase" unicode="&#x201a;" horiz-adv-x="135" 
d="M54 -207c-18 0 -34 15 -32 33l27 222c2 15 16 27 32 27c18 0 34 -15 32 -33l-27 -222c-2 -15 -16 -27 -32 -27z" />
    <glyph glyph-name="grave" unicode="`" horiz-adv-x="270" 
d="M0 632c0 16 14 30 32 30c8 0 16 -3 21 -7l151 -112c7 -5 12 -14 12 -23c0 -16 -14 -30 -32 -30c-8 0 -16 3 -21 7l-151 112c-7 5 -12 14 -12 23z" />
    <glyph glyph-name="otilde" unicode="&#xf5;" horiz-adv-x="607" 
d="M304 402c-69 0 -136 -2 -173 -33c-33 -28 -38 -82 -38 -144s5 -116 38 -144c37 -31 104 -33 173 -33s135 2 172 33c33 28 39 82 39 144s-6 116 -39 144c-37 31 -103 33 -172 33zM297 462h13c84 0 160 -7 210 -50c49 -41 59 -107 59 -187s-10 -146 -59 -187
c-50 -43 -126 -50 -210 -50h-13c-84 0 -159 7 -209 50c-49 41 -59 107 -59 187s10 146 59 187c50 43 125 50 209 50zM221 591c-33 0 -55 -36 -55 -71c0 -16 -14 -30 -32 -30s-32 14 -32 30c0 65 47 130 121 130c73 0 97 -66 140 -93c8 -5 16 -8 24 -8c33 0 55 36 55 71
c0 16 14 30 32 30s32 -14 32 -30c0 -65 -47 -130 -121 -130c-73 0 -97 66 -140 93c-8 5 -16 8 -24 8z" />
    <glyph glyph-name="uhungarumlaut" unicode="&#x171;" horiz-adv-x="607" 
d="M80 432c0 16 14 30 32 30s32 -14 32 -30v-207c0 -59 3 -116 31 -146c26 -28 74 -31 129 -31s102 3 128 31c28 30 31 87 31 146v207c0 16 14 30 32 30s32 -14 32 -30v-213c0 -74 -6 -136 -46 -179c-43 -47 -100 -52 -177 -52s-135 5 -178 52c-40 43 -46 105 -46 179v213z
M304 662c18 0 32 -14 32 -30c0 -7 -3 -14 -7 -19l-99 -112c-6 -7 -15 -11 -25 -11c-18 0 -32 14 -32 30c0 7 3 14 7 19l99 112c6 7 15 11 25 11zM502 662c18 0 32 -14 32 -30c0 -7 -3 -14 -7 -19l-99 -112c-6 -7 -15 -11 -25 -11c-18 0 -32 14 -32 30c0 7 3 14 7 19l99 112
c6 7 15 11 25 11z" />
    <glyph glyph-name="dcroat" unicode="&#x111;" horiz-adv-x="567" 
d="M0 195c-18 0 -32 13 -32 30s14 30 32 30h80v165c0 16 14 30 32 30h178c79 0 148 -7 194 -48c46 -40 54 -101 54 -177s-9 -137 -54 -177c-47 -41 -115 -48 -194 -48h-178c-18 0 -32 14 -32 30v165h-80zM144 195v-135h140c63 0 123 1 156 30c30 27 34 78 34 135
s-4 108 -34 135c-33 29 -93 30 -156 30h-140v-135h140c18 0 32 -13 32 -30s-14 -30 -32 -30h-140z" />
    <glyph glyph-name="K" unicode="K" horiz-adv-x="585" 
d="M144 18c0 -16 -14 -30 -32 -30s-32 14 -32 30v564c0 16 14 30 32 30s32 -14 32 -30v-281c117 101 235 202 352 303c6 5 14 8 22 8c18 0 32 -14 32 -30c0 -9 -5 -17 -11 -22l-230 -198l235 -328c3 -5 6 -10 6 -16c0 -16 -14 -30 -32 -30c-11 0 -21 6 -27 14l-230 319
l-117 -100v-203z" />
    <glyph glyph-name="zdotaccent" unicode="&#x17c;" horiz-adv-x="607" 
d="M495 60c18 0 32 -14 32 -30s-14 -30 -32 -30h-383c-18 0 -32 14 -32 30c0 8 4 15 9 20l334 340h-311c-18 0 -32 14 -32 30s14 30 32 30h383c18 0 32 -14 32 -30c0 -8 -3 -15 -8 -20l-334 -340h310zM348 592c0 -24 -19 -42 -44 -42s-45 18 -45 42s20 42 45 42
s44 -18 44 -42z" />
    <glyph glyph-name="period" unicode="." horiz-adv-x="225" 
d="M157 30c0 -24 -20 -42 -45 -42s-44 18 -44 42s19 42 44 42s45 -18 45 -42z" />
    <glyph glyph-name="k" unicode="k" horiz-adv-x="526" 
d="M144 18c0 -16 -14 -30 -32 -30s-32 14 -32 30v414c0 16 14 30 32 30s32 -14 32 -30v-195c101 73 201 145 302 218c5 4 13 7 20 7c18 0 32 -14 32 -30c0 -9 -6 -18 -13 -23l-193 -140l199 -233c4 -5 7 -11 7 -18c0 -16 -14 -30 -32 -30c-10 0 -19 5 -25 12l-199 232
l-98 -70v-144z" />
    <glyph glyph-name="W" unicode="W" horiz-adv-x="900" 
d="M25 573c-1 3 -2 6 -2 9c0 16 15 30 32 30c14 0 27 -8 31 -20l178 -482l155 420c3 13 16 22 31 22s28 -9 31 -22l155 -420l178 482c4 12 17 20 31 20c17 0 32 -14 32 -30c0 -3 -1 -6 -2 -9l-208 -565c-4 -12 -17 -20 -31 -20s-26 8 -30 20l-156 423l-156 -423
c-4 -12 -16 -20 -30 -20s-27 8 -31 20z" />
    <glyph glyph-name="X" unicode="X" horiz-adv-x="585" 
d="M36 582c0 16 14 30 32 30c11 0 19 -5 25 -12l199 -250l200 250c6 7 15 12 26 12c18 0 32 -14 32 -30c0 -7 -3 -12 -7 -17l-211 -265l211 -265c4 -5 7 -10 7 -17c0 -16 -14 -30 -32 -30c-11 0 -20 5 -26 12l-200 250l-199 -250c-6 -7 -14 -12 -25 -12c-18 0 -32 14 -32 30
c0 7 2 12 6 17l211 265l-211 265c-4 5 -6 10 -6 17z" />
    <glyph glyph-name="ogonek" unicode="&#x2db;" horiz-adv-x="180" 
d="M140 30c0 -8 -4 -16 -10 -21c-9 -8 -78 -77 -78 -115c0 -9 2 -20 6 -22c13 -7 43 -7 67 -7h23c18 0 32 -14 32 -30s-14 -30 -32 -30h-26c-36 0 -71 1 -97 16c-25 14 -37 41 -37 73c0 63 77 136 98 157c6 5 13 9 22 9c18 0 32 -14 32 -30z" />
    <glyph glyph-name="agrave" unicode="&#xe0;" horiz-adv-x="607" 
d="M463 195h-319v-177c0 -16 -14 -30 -32 -30s-32 14 -32 30v213c0 74 6 136 46 179c43 47 101 52 178 52s134 -5 177 -52c40 -43 46 -105 46 -179v-213c0 -16 -14 -30 -32 -30s-32 14 -32 30v177zM169 632c0 16 14 30 32 30c8 0 15 -3 20 -7l151 -112c7 -5 12 -14 12 -23
c0 -16 -14 -30 -32 -30c-8 0 -15 3 -20 7l-151 112c-7 5 -12 14 -12 23zM145 255h318c-1 48 -8 91 -31 116c-26 28 -73 31 -128 31s-103 -3 -129 -31c-23 -25 -29 -68 -30 -116z" />
    <glyph glyph-name="aogonek" unicode="&#x105;" horiz-adv-x="607" 
d="M463 195h-319v-177c0 -16 -14 -30 -32 -30s-32 14 -32 30v213c0 74 6 136 46 179c43 47 101 52 178 52s134 -5 177 -52c40 -43 46 -105 46 -179v-213c0 -16 -13 -29 -30 -30c-17 -18 -40 -46 -51 -70c-4 -10 -7 -18 -7 -24c0 -9 2 -20 6 -22c13 -7 43 -7 67 -7h22
c18 0 32 -14 32 -30s-14 -30 -32 -30h-25c-36 0 -71 1 -97 16c-25 14 -37 41 -37 73c0 40 25 73 43 97c17 22 34 41 45 51v153zM145 255h318c-1 48 -8 91 -31 116c-26 28 -73 31 -128 31s-103 -3 -129 -31c-23 -25 -29 -68 -30 -116z" />
    <glyph glyph-name="quotedbl" unicode="&#x22;" horiz-adv-x="360" 
d="M80 582c0 16 14 30 32 30s32 -14 32 -30v-222c0 -16 -14 -30 -32 -30s-32 14 -32 30v222zM216 582c0 16 14 30 32 30s32 -14 32 -30v-222c0 -16 -14 -30 -32 -30s-32 14 -32 30v222z" />
    <glyph glyph-name="t" unicode="t" horiz-adv-x="526" 
d="M32 390c-18 0 -32 13 -32 30s14 30 32 30h462c18 0 32 -13 32 -30s-14 -30 -32 -30h-199v-372c0 -16 -14 -30 -32 -30s-32 14 -32 30v372h-199z" />
    <glyph glyph-name="question" unicode="?" horiz-adv-x="540" 
d="M308 240h-6c-19 0 -40 0 -49 -7c-7 -6 -7 -21 -7 -36c0 -16 -14 -30 -32 -30s-32 14 -32 30c0 35 6 62 29 81c24 20 54 22 92 22h13c55 0 88 9 98 54c4 19 4 42 4 66c0 41 -1 80 -21 100c-18 19 -54 20 -93 20h-236c-18 0 -32 14 -32 30s14 30 32 30h240
c59 0 102 -4 137 -40c32 -33 37 -78 37 -134v-12c0 -56 -5 -101 -37 -134c-35 -36 -78 -40 -137 -40zM258 30c0 -24 -19 -42 -44 -42s-45 18 -45 42s20 42 45 42s44 -18 44 -42z" />
    <glyph glyph-name="Adieresis" unicode="&#xc4;" 
d="M530 240h-386v-222c0 -16 -14 -30 -32 -30s-32 14 -32 30v252c0 102 5 202 51 266c50 69 139 76 207 76s156 -7 206 -76c46 -64 50 -164 50 -266v-252c0 -16 -14 -30 -32 -30s-32 14 -32 30v222zM301 702c0 -24 -20 -42 -45 -42s-44 18 -44 42s19 42 44 42s45 -18 45 -42
zM463 702c0 -24 -20 -42 -45 -42s-44 18 -44 42s19 42 44 42s45 -18 45 -42zM145 300h385c-1 79 -6 158 -39 203c-29 40 -86 49 -153 49s-125 -9 -154 -49c-33 -45 -38 -124 -39 -203z" />
    <glyph glyph-name="five" unicode="5" horiz-adv-x="495" 
d="M100 0c-18 0 -32 14 -32 30s14 30 32 30h159c38 0 76 0 95 16c16 14 19 43 19 74s-3 60 -19 74c-19 16 -57 16 -95 16h-147c-18 0 -32 14 -32 30v300c0 16 14 30 32 30h270c18 0 32 -14 32 -30s-14 -30 -32 -30h-238v-240h120c53 0 100 -5 133 -32c32 -26 40 -67 40 -118
s-8 -92 -40 -118c-33 -27 -80 -32 -133 -32h-164z" />
    <glyph glyph-name="Aring" unicode="&#xc5;" 
d="M339 552c50 0 89 11 109 48c37 -10 71 -29 96 -64c46 -64 50 -164 50 -266v-252c0 -16 -14 -30 -32 -30s-32 14 -32 30v222h-386v-222c0 -16 -14 -30 -32 -30s-32 14 -32 30v252c0 102 5 202 51 266c25 35 59 54 96 64c20 -37 59 -48 109 -48c-67 0 -123 -9 -152 -49
c-33 -45 -38 -124 -39 -203h385c-1 79 -6 158 -39 203c-29 40 -85 49 -152 49zM462 687v-10c0 -28 -3 -57 -14 -77c-37 10 -76 12 -110 12c21 0 41 0 49 9c11 12 11 37 11 61s0 49 -11 61c-8 9 -28 9 -49 9s-42 0 -50 -9c-11 -12 -11 -37 -11 -61s0 -49 11 -61
c8 -9 29 -9 50 -9c-34 0 -74 -2 -111 -12c-11 20 -14 49 -14 77v10c0 39 4 70 26 94c25 27 55 31 97 31h3c42 0 72 -4 97 -31c22 -24 26 -55 26 -94z" />
    <glyph glyph-name="z" unicode="z" horiz-adv-x="607" 
d="M495 60c18 0 32 -14 32 -30s-14 -30 -32 -30h-383c-18 0 -32 14 -32 30c0 8 4 15 9 20l334 340h-311c-18 0 -32 14 -32 30s14 30 32 30h383c18 0 32 -14 32 -30c0 -8 -3 -15 -8 -20l-334 -340h310z" />
    <glyph glyph-name="Ccedilla" unicode="&#xc7;" horiz-adv-x="630" 
d="M530 600c18 0 32 -14 32 -30s-14 -30 -32 -30h-184c-86 0 -156 -4 -198 -49c-44 -47 -48 -131 -48 -221c0 -73 6 -136 45 -170c43 -37 120 -40 201 -40h184c18 0 32 -14 32 -30s-14 -30 -32 -30h-159l-5 -20c18 -2 34 -4 50 -15c23 -15 32 -40 32 -71
c0 -30 -9 -57 -32 -72c-24 -15 -55 -17 -90 -17h-37c-18 0 -32 14 -32 30s14 30 32 30h38c19 0 43 0 53 6c0 0 4 6 4 23s-4 22 -4 22c-10 6 -35 6 -54 6h-1c-17 0 -32 14 -32 30c0 2 0 4 1 7l11 42c-84 1 -153 11 -204 55c-55 47 -65 122 -65 214v6c0 104 8 194 63 253
c59 63 140 71 247 71h184z" />
    <glyph glyph-name="Idotaccent" unicode="&#x130;" horiz-adv-x="270" 
d="M167 18c0 -16 -14 -30 -32 -30s-32 14 -32 30v564c0 16 14 30 32 30s32 -14 32 -30v-564zM180 742c0 -24 -20 -42 -45 -42s-45 18 -45 42s20 42 45 42s45 -18 45 -42z" />
    <glyph glyph-name="sterling" unicode="&#xa3;" horiz-adv-x="495" 
d="M177 240c0 -63 -1 -135 -21 -180h306c18 0 33 -13 33 -30s-15 -30 -33 -30h-394c-18 0 -33 13 -33 30s15 30 33 30h4c10 2 22 10 27 26c12 38 14 100 14 154h-45c-18 0 -33 13 -33 30s15 30 33 30h45v140c0 51 4 92 32 122c31 33 71 38 124 38h126c18 0 32 -14 32 -30
s-14 -30 -32 -30h-125c-32 0 -62 -1 -76 -16c-17 -18 -17 -54 -17 -89v-135h158c18 0 32 -13 32 -30s-14 -30 -32 -30h-158z" />
    <glyph glyph-name="eight" unicode="8" horiz-adv-x="495" 
d="M248 300c39 0 72 1 90 20c20 22 22 64 22 106c0 25 -1 49 -5 69c-7 33 -21 49 -57 55c-15 2 -32 2 -50 2c-39 0 -73 -1 -91 -20c-20 -22 -21 -64 -21 -106c0 -25 0 -49 4 -69c7 -33 21 -49 57 -55c15 -2 33 -2 51 -2zM36 144c0 68 20 116 72 138c-31 34 -36 81 -36 139
v10c0 57 5 105 36 139c34 37 80 42 140 42s105 -5 139 -42c31 -34 37 -81 37 -139v-10c0 -58 -6 -105 -37 -139c52 -22 73 -70 73 -138c0 -54 -12 -98 -49 -124c-40 -28 -97 -32 -158 -32h-11c-61 0 -118 4 -158 32c-37 26 -48 70 -48 124zM248 240c-47 0 -99 -1 -125 -19
c-19 -13 -23 -44 -23 -77s4 -64 23 -77c26 -18 78 -19 125 -19s98 1 124 19c19 13 24 44 24 77s-5 64 -24 77c-26 18 -77 19 -124 19z" />
    <glyph glyph-name="Ntilde" unicode="&#xd1;" 
d="M144 18c0 -16 -14 -30 -32 -30s-32 14 -32 30v564c0 16 14 30 32 30c10 0 19 -4 25 -11l393 -441v422c0 16 14 30 32 30s32 -14 32 -30v-564c0 -16 -14 -30 -32 -30s-32 14 -32 30v49l-386 433v-482zM255 741c-33 0 -55 -36 -55 -71c0 -16 -14 -30 -32 -30s-32 14 -32 30
c0 65 46 130 120 130c73 0 98 -66 141 -93c8 -5 15 -8 23 -8c33 0 56 36 56 71c0 16 14 30 32 30s32 -14 32 -30c0 -65 -48 -130 -122 -130c-73 0 -97 66 -140 93c-8 5 -15 8 -23 8z" />
    <glyph glyph-name="Z" unicode="Z" 
d="M562 60c18 0 32 -14 32 -30s-14 -30 -32 -30h-450c-18 0 -32 14 -32 30c0 7 3 13 7 18l411 492h-386c-18 0 -32 14 -32 30s14 30 32 30h450c18 0 32 -14 32 -30c0 -7 -2 -13 -6 -18l-411 -492h385z" />
    <glyph glyph-name="T" unicode="T" horiz-adv-x="585" 
d="M32 540c-18 0 -32 13 -32 30s14 30 32 30h520c18 0 33 -13 33 -30s-15 -30 -33 -30h-228v-522c0 -16 -14 -30 -32 -30s-32 14 -32 30v522h-228z" />
    <glyph glyph-name="parenleft" unicode="(" horiz-adv-x="360" 
d="M260 612c18 0 32 -14 32 -30s-14 -30 -32 -30c-56 0 -105 -18 -125 -58c-35 -68 -35 -191 -35 -292s0 -223 35 -291c20 -40 69 -59 125 -59c18 0 32 -13 32 -29s-14 -30 -32 -30c-69 0 -148 24 -183 93c-40 79 -41 205 -41 316c0 113 1 238 41 317c35 69 114 93 183 93z
" />
    <glyph glyph-name="Eacute" unicode="&#xc9;" horiz-adv-x="630" 
d="M144 240v-180h386c18 0 32 -14 32 -30s-14 -30 -32 -30h-418c-18 0 -32 14 -32 30v540c0 16 14 30 32 30h418c18 0 32 -14 32 -30s-14 -30 -32 -30h-386v-240h326c18 0 32 -14 32 -30s-14 -30 -32 -30h-326zM273 640c-18 0 -32 14 -32 30c0 9 4 18 11 23l151 112
c5 4 13 7 21 7c18 0 32 -14 32 -30c0 -9 -5 -18 -12 -23l-151 -112c-5 -4 -12 -7 -20 -7z" />
    <glyph glyph-name="zcaron" unicode="&#x17e;" horiz-adv-x="607" 
d="M495 60c18 0 32 -14 32 -30s-14 -30 -32 -30h-383c-18 0 -32 14 -32 30c0 8 4 15 9 20l334 340h-311c-18 0 -32 14 -32 30s14 30 32 30h383c18 0 32 -14 32 -30c0 -8 -3 -15 -8 -20l-334 -340h310zM147 632c0 16 14 30 32 30c9 0 16 -4 22 -9l103 -92l102 92
c6 5 14 9 23 9c18 0 32 -14 32 -30c0 -8 -4 -16 -10 -21l-125 -112c-6 -5 -14 -8 -22 -8s-17 3 -23 8l-125 112c-6 5 -9 13 -9 21z" />
    <glyph glyph-name="IJ" unicode="&#x132;" 
d="M167 18c0 -16 -14 -30 -32 -30s-32 14 -32 30v564c0 16 14 30 32 30s32 -14 32 -30v-564zM302 -12c-18 0 -32 14 -32 30s14 30 32 30c9 0 17 -1 26 -1c70 0 129 5 163 41c36 38 39 107 39 182v300c0 16 14 30 32 30s32 -14 32 -30v-306c0 -89 -7 -164 -55 -215
c-49 -52 -114 -61 -201 -61h-36z" />
    <glyph glyph-name="guilsinglleft" unicode="&#x2039;" horiz-adv-x="315" 
d="M225 462c18 0 32 -14 32 -30c0 -5 -2 -10 -5 -15l-124 -192l124 -179c3 -5 5 -10 5 -16c0 -16 -14 -30 -32 -30c-11 0 -21 6 -27 14l-135 195c-3 5 -5 10 -5 16c0 5 2 10 5 15l135 207c6 9 15 15 27 15z" />
    <glyph glyph-name="abreve" unicode="&#x103;" horiz-adv-x="607" 
d="M463 195h-319v-177c0 -16 -14 -30 -32 -30s-32 14 -32 30v213c0 74 6 136 46 179c43 47 101 52 178 52s134 -5 177 -52c40 -43 46 -105 46 -179v-213c0 -16 -14 -30 -32 -30s-32 14 -32 30v177zM310 490h-12c-47 0 -88 5 -117 31s-34 64 -34 111c0 16 14 30 32 30
s32 -14 32 -30c0 -28 1 -55 15 -68c15 -13 46 -14 78 -14s62 0 77 14c14 13 16 40 16 68c0 16 14 30 32 30s32 -14 32 -30c0 -47 -6 -85 -35 -111s-68 -31 -116 -31zM145 255h318c-1 48 -8 91 -31 116c-26 28 -73 31 -128 31s-103 -3 -129 -31c-23 -25 -29 -68 -30 -116z
" />
    <glyph glyph-name="G" unicode="G" horiz-adv-x="630" 
d="M518 600c18 0 32 -14 32 -30s-14 -30 -32 -30h-172c-86 0 -156 -4 -198 -49c-44 -47 -48 -131 -48 -221c0 -73 6 -136 45 -170c43 -37 120 -40 201 -40h140v180h-140c-18 0 -32 14 -32 30s14 30 32 30h172c18 0 32 -14 32 -30v-240c0 -16 -14 -30 -32 -30h-178
c-96 0 -182 7 -239 56c-55 47 -65 122 -65 214v6c0 104 8 194 63 253c59 63 140 71 247 71h172z" />
    <glyph glyph-name="h" unicode="h" horiz-adv-x="607" 
d="M463 195h-319v-177c0 -16 -14 -30 -32 -30s-32 14 -32 30v414c0 16 14 30 32 30s32 -14 32 -30v-177h319v177c0 16 14 30 32 30s32 -14 32 -30v-414c0 -16 -14 -30 -32 -30s-32 14 -32 30v177z" />
    <glyph glyph-name="aacute" unicode="&#xe1;" horiz-adv-x="607" 
d="M463 195h-319v-177c0 -16 -14 -30 -32 -30s-32 14 -32 30v213c0 74 6 136 46 179c43 47 101 52 178 52s134 -5 177 -52c40 -43 46 -105 46 -179v-213c0 -16 -14 -30 -32 -30s-32 14 -32 30v177zM255 490c-18 0 -32 14 -32 30c0 9 5 18 12 23l151 112c5 4 12 7 20 7
c18 0 32 -14 32 -30c0 -9 -5 -18 -12 -23l-151 -112c-5 -4 -12 -7 -20 -7zM145 255h318c-1 48 -8 91 -31 116c-26 28 -73 31 -128 31s-103 -3 -129 -31c-23 -25 -29 -68 -30 -116z" />
    <glyph glyph-name="eacute" unicode="&#xe9;" horiz-adv-x="567" 
d="M144 195v-135h323c18 0 32 -14 32 -30s-14 -30 -32 -30h-355c-18 0 -32 14 -32 30v390c0 16 14 30 32 30h355c18 0 32 -14 32 -30s-14 -30 -32 -30h-323v-135h263c18 0 32 -14 32 -30s-14 -30 -32 -30h-263zM241 490c-18 0 -32 14 -32 30c0 9 5 18 12 23l151 112
c5 4 12 7 20 7c18 0 32 -14 32 -30c0 -9 -5 -18 -12 -23l-151 -112c-5 -4 -12 -7 -20 -7z" />
    <glyph glyph-name="Scaron" unicode="&#x160;" horiz-adv-x="630" 
d="M495 600c18 0 32 -14 32 -30s-14 -30 -32 -30h-250c-44 0 -80 -2 -99 -24c-22 -26 -24 -76 -24 -126c0 -31 3 -60 20 -73c21 -16 63 -17 103 -17h209c38 0 73 -2 98 -21c24 -18 31 -47 31 -81c0 -54 -1 -110 -23 -148c-24 -41 -72 -50 -106 -50h-364c-18 0 -32 14 -32 30
s14 30 32 30h364c27 0 44 6 50 17c15 26 15 79 15 121c0 14 0 30 -7 35c-9 6 -27 7 -45 7h-228c-55 0 -104 4 -139 31c-33 26 -42 68 -42 119v5c0 64 5 118 38 157c33 38 86 48 149 48h250zM158 782c0 16 14 30 32 30c9 0 16 -4 22 -9l103 -92l103 92c6 5 13 9 22 9
c18 0 32 -14 32 -30c0 -8 -4 -16 -10 -21l-125 -112c-6 -5 -14 -8 -22 -8s-16 3 -22 8l-125 112c-6 5 -10 13 -10 21z" />
    <glyph glyph-name="greater" unicode="&#x3e;" horiz-adv-x="540" 
d="M58 432c0 16 14 30 32 30c6 0 12 -2 17 -5l360 -207c9 -5 15 -14 15 -25s-7 -20 -16 -25l-360 -196c-5 -3 -11 -4 -16 -4c-17 0 -32 13 -32 30c0 11 7 21 16 26l314 170l-315 181c-9 5 -15 14 -15 25z" />
    <glyph glyph-name="oe" unicode="&#x153;" horiz-adv-x="891" 
d="M791 60c18 0 32 -14 32 -30s-14 -30 -32 -30h-456c-91 0 -180 4 -238 45c-52 36 -68 102 -68 180s16 144 68 180c58 41 147 45 238 45h456c18 0 32 -14 32 -30s-14 -30 -32 -30h-313v-135h253c18 0 32 -14 32 -30s-14 -30 -32 -30h-253v-135h313zM414 60v330h-74
c-77 0 -159 -2 -204 -33c-34 -24 -43 -75 -43 -132s9 -108 43 -132c45 -31 127 -33 204 -33h74z" />
    <glyph glyph-name="Nacute" unicode="&#x143;" 
d="M144 18c0 -16 -14 -30 -32 -30s-32 14 -32 30v564c0 16 14 30 32 30c10 0 19 -4 25 -11l393 -441v422c0 16 14 30 32 30s32 -14 32 -30v-564c0 -16 -14 -30 -32 -30s-32 14 -32 30v49l-386 433v-482zM289 640c-18 0 -32 14 -32 30c0 9 5 18 12 23l151 112c5 4 12 7 20 7
c18 0 32 -14 32 -30c0 -9 -5 -18 -12 -23l-151 -112c-5 -4 -12 -7 -20 -7z" />
    <glyph glyph-name="lacute" unicode="&#x13a;" horiz-adv-x="486" 
d="M144 60h310c18 0 32 -14 32 -30s-14 -30 -32 -30h-342c-18 0 -32 14 -32 30v390c0 16 14 30 32 30s32 -14 32 -30v-360zM64 490c-18 0 -32 14 -32 30c0 9 5 18 12 23l151 112c5 4 12 7 20 7c18 0 32 -14 32 -30c0 -9 -5 -18 -12 -23l-151 -112c-5 -4 -12 -7 -20 -7z" />
    <glyph glyph-name="less" unicode="&#x3c;" horiz-adv-x="540" 
d="M450 462c18 0 32 -14 32 -30c0 -11 -6 -20 -15 -25l-315 -181l314 -170c9 -5 16 -15 16 -26c0 -16 -15 -30 -32 -30c-5 0 -11 1 -16 4l-360 196c-9 5 -16 14 -16 25s6 20 15 25l360 207c5 3 11 5 17 5z" />
    <glyph glyph-name="asciicircum" unicode="^" horiz-adv-x="360" 
d="M32 450c-18 0 -32 14 -32 30c0 10 5 19 13 24l148 102c6 4 12 5 19 5s13 -1 19 -5l148 -102c8 -5 13 -14 13 -24c0 -16 -14 -30 -32 -30c-7 0 -15 2 -20 6l-128 89l-128 -89c-5 -4 -13 -6 -20 -6z" />
    <glyph glyph-name="seven" unicode="7" horiz-adv-x="495" 
d="M90 540c-18 0 -32 14 -32 30s14 30 32 30h315c17 0 32 -14 32 -30c0 -3 -1 -6 -2 -9l-194 -552c-4 -12 -17 -21 -31 -21c-17 0 -32 14 -32 30c0 3 1 6 2 9l181 513h-271z" />
    <glyph glyph-name="Ocircumflex" unicode="&#xd4;" 
d="M338 552c-83 0 -152 -6 -191 -51c-43 -50 -47 -139 -47 -231c0 -77 4 -144 44 -181c41 -39 114 -41 194 -41s152 2 193 41c40 37 45 104 45 181c0 92 -5 181 -48 231c-39 45 -107 51 -190 51zM345 -12h-15c-95 0 -177 9 -231 60s-63 128 -63 222v6c0 106 6 200 60 262
c53 60 141 74 242 74c100 0 189 -14 241 -74c54 -62 61 -156 61 -262v-6c0 -94 -10 -171 -64 -222s-136 -60 -231 -60zM212 640c-18 0 -32 14 -32 30c0 8 4 16 10 21l125 112c6 5 14 8 22 8s17 -3 23 -8l125 -112c6 -5 9 -13 9 -21c0 -16 -14 -30 -32 -30c-9 0 -16 4 -22 9
l-102 92l-103 -92c-6 -5 -14 -9 -23 -9z" />
    <glyph glyph-name="F" unicode="F" horiz-adv-x="630" 
d="M144 240v-222c0 -16 -14 -30 -32 -30s-32 14 -32 30v552c0 16 14 30 32 30h418c18 0 32 -14 32 -30s-14 -30 -32 -30h-386v-240h326c18 0 32 -14 32 -30s-14 -30 -32 -30h-326z" />
    <glyph glyph-name="tilde" unicode="&#x2dc;" horiz-adv-x="405" 
d="M120 591c-33 0 -56 -36 -56 -71c0 -16 -14 -30 -32 -30s-32 14 -32 30c0 65 48 130 122 130c73 0 97 -66 140 -93c8 -5 15 -8 23 -8c33 0 55 36 55 71c0 16 14 30 32 30s32 -14 32 -30c0 -65 -46 -130 -120 -130c-73 0 -98 66 -141 93c-8 5 -15 8 -23 8z" />
    <glyph glyph-name="iacute" unicode="&#xed;" horiz-adv-x="243" 
d="M154 18c0 -16 -14 -30 -32 -30s-32 14 -32 30v414c0 16 14 30 32 30s32 -14 32 -30v-414zM73 490c-18 0 -32 14 -32 30c0 9 5 18 12 23l151 112c5 4 12 7 20 7c18 0 32 -14 32 -30c0 -9 -5 -18 -12 -23l-151 -112c-5 -4 -12 -7 -20 -7z" />
    <glyph glyph-name="Otilde" unicode="&#xd5;" 
d="M338 552c-83 0 -152 -6 -191 -51c-43 -50 -47 -139 -47 -231c0 -77 4 -144 44 -181c41 -39 114 -41 194 -41s152 2 193 41c40 37 45 104 45 181c0 92 -5 181 -48 231c-39 45 -107 51 -190 51zM345 -12h-15c-95 0 -177 9 -231 60s-63 128 -63 222v6c0 106 6 200 60 262
c53 60 141 74 242 74c100 0 189 -14 241 -74c54 -62 61 -156 61 -262v-6c0 -94 -10 -171 -64 -222s-136 -60 -231 -60zM255 741c-33 0 -55 -36 -55 -71c0 -16 -14 -30 -32 -30s-32 14 -32 30c0 65 46 130 120 130c73 0 98 -66 141 -93c8 -5 15 -8 23 -8c33 0 56 36 56 71
c0 16 14 30 32 30s32 -14 32 -30c0 -65 -48 -130 -122 -130c-73 0 -97 66 -140 93c-8 5 -15 8 -23 8z" />
    <glyph glyph-name="parenright" unicode=")" horiz-adv-x="360" 
d="M100 552c-18 0 -32 14 -32 30s14 30 32 30c69 0 148 -24 183 -93c40 -79 41 -206 41 -317c0 -113 -1 -237 -41 -316c-35 -69 -114 -93 -183 -93c-18 0 -32 14 -32 30s14 29 32 29c56 0 105 19 125 59c35 68 35 190 35 291s0 224 -35 292c-20 40 -69 58 -125 58z" />
    <glyph glyph-name="germandbls" unicode="&#xdf;" horiz-adv-x="607" 
d="M527 329c0 -32 -10 -69 -31 -91c5 -2 10 -3 15 -5c46 -18 68 -63 68 -105s-22 -88 -68 -106c-53 -21 -135 -22 -207 -22h-61c-18 0 -32 14 -32 30s14 30 32 30h61c62 0 139 0 181 17c16 6 30 26 30 51s-14 44 -30 50c-42 17 -119 17 -181 17c-18 0 -32 14 -32 30
s14 30 32 30c49 0 107 0 137 16c15 8 22 34 22 58s-7 49 -22 57c-30 16 -88 16 -137 16c-55 0 -103 -3 -129 -31c-28 -30 -31 -87 -31 -146v-207c0 -16 -14 -30 -32 -30s-32 14 -32 30v213c0 74 6 136 46 179c43 47 101 52 178 52c84 0 169 -4 203 -56c16 -24 20 -52 20 -77
z" />
    <glyph glyph-name="a" unicode="a" horiz-adv-x="607" 
d="M463 195h-319v-177c0 -16 -14 -30 -32 -30s-32 14 -32 30v213c0 74 6 136 46 179c43 47 101 52 178 52s134 -5 177 -52c40 -43 46 -105 46 -179v-213c0 -16 -14 -30 -32 -30s-32 14 -32 30v177zM145 255h318c-1 48 -8 91 -31 116c-26 28 -73 31 -128 31s-103 -3 -129 -31
c-23 -25 -29 -68 -30 -116z" />
    <glyph glyph-name="scedilla" unicode="&#x15f;" horiz-adv-x="567" 
d="M446 450c18 0 32 -14 32 -30s-14 -30 -32 -30h-226c-36 0 -72 0 -90 -15c-16 -13 -17 -42 -17 -72c0 -16 3 -32 12 -37c20 -11 61 -11 95 -11h189c34 0 66 -2 89 -18c23 -15 30 -41 30 -71c0 -46 -1 -92 -22 -124c-24 -37 -68 -42 -97 -42h-100l-6 -20
c18 -2 34 -4 50 -15c23 -15 32 -40 32 -71c0 -30 -9 -57 -32 -72c-24 -15 -55 -17 -90 -17h-37c-18 0 -32 14 -32 30s14 30 32 30h38c19 0 43 0 53 6c0 0 4 6 4 23s-4 22 -4 22c-10 6 -35 6 -54 6h-1c-17 0 -32 14 -32 30c0 2 0 4 1 7l12 41h-162c-18 0 -32 14 -32 30
s14 30 32 30h328c25 0 37 5 42 12c13 20 13 61 13 94c0 17 -4 23 -4 23c-9 6 -31 6 -49 6h-191c-48 0 -95 1 -128 20c-30 17 -43 50 -43 88c0 49 7 89 38 115c32 27 76 32 127 32h232z" />
    <glyph glyph-name="ugrave" unicode="&#xf9;" horiz-adv-x="607" 
d="M80 432c0 16 14 30 32 30s32 -14 32 -30v-207c0 -59 3 -116 31 -146c26 -28 74 -31 129 -31s102 3 128 31c28 30 31 87 31 146v207c0 16 14 30 32 30s32 -14 32 -30v-213c0 -74 -6 -136 -46 -179c-43 -47 -100 -52 -177 -52s-135 5 -178 52c-40 43 -46 105 -46 179v213z
M169 632c0 16 14 30 32 30c8 0 15 -3 20 -7l151 -112c7 -5 12 -14 12 -23c0 -16 -14 -30 -32 -30c-8 0 -15 3 -20 7l-151 112c-7 5 -12 14 -12 23z" />
    <glyph glyph-name="uacute" unicode="&#xfa;" horiz-adv-x="607" 
d="M80 432c0 16 14 30 32 30s32 -14 32 -30v-207c0 -59 3 -116 31 -146c26 -28 74 -31 129 -31s102 3 128 31c28 30 31 87 31 146v207c0 16 14 30 32 30s32 -14 32 -30v-213c0 -74 -6 -136 -46 -179c-43 -47 -100 -52 -177 -52s-135 5 -178 52c-40 43 -46 105 -46 179v213z
M255 490c-18 0 -32 14 -32 30c0 9 5 18 12 23l151 112c5 4 12 7 20 7c18 0 32 -14 32 -30c0 -9 -5 -18 -12 -23l-151 -112c-5 -4 -12 -7 -20 -7z" />
    <glyph glyph-name="Ncaron" unicode="&#x147;" 
d="M144 18c0 -16 -14 -30 -32 -30s-32 14 -32 30v564c0 16 14 30 32 30c10 0 19 -4 25 -11l393 -441v422c0 16 14 30 32 30s32 -14 32 -30v-564c0 -16 -14 -30 -32 -30s-32 14 -32 30v49l-386 433v-482zM180 782c0 16 14 30 32 30c9 0 17 -4 23 -9l103 -92l102 92
c6 5 13 9 22 9c18 0 32 -14 32 -30c0 -8 -3 -16 -9 -21l-125 -112c-6 -5 -14 -8 -22 -8s-17 3 -23 8l-125 112c-6 5 -10 13 -10 21z" />
    <glyph glyph-name="one" unicode="1" horiz-adv-x="495" 
d="M112 341c-18 0 -32 14 -32 30c0 7 3 13 7 18l180 211c6 7 15 12 25 12c18 0 32 -14 32 -30v-564c0 -16 -14 -30 -32 -30s-32 14 -32 30v479l-122 -144c-6 -7 -16 -12 -26 -12z" />
    <glyph glyph-name="f" unicode="f" horiz-adv-x="567" 
d="M144 195v-177c0 -16 -14 -30 -32 -30s-32 14 -32 30v402c0 16 14 30 32 30h355c18 0 32 -14 32 -30s-14 -30 -32 -30h-323v-135h263c18 0 32 -14 32 -30s-14 -30 -32 -30h-263z" />
    <glyph glyph-name="Ugrave" unicode="&#xd9;" 
d="M80 582c0 16 14 30 32 30s32 -14 32 -30v-312c0 -73 3 -144 38 -183c32 -36 89 -39 156 -39s123 3 155 39c35 39 37 110 37 183v312c0 16 14 30 32 30s32 -14 32 -30v-318c0 -88 -6 -163 -52 -214c-45 -51 -118 -62 -204 -62c-37 0 -78 1 -118 11c-32 8 -63 24 -87 51
c-46 51 -53 126 -53 214v318zM203 782c0 16 14 30 32 30c8 0 15 -3 20 -7l151 -112c7 -5 12 -14 12 -23c0 -16 -14 -30 -32 -30c-8 0 -15 3 -20 7l-151 112c-7 5 -12 14 -12 23z" />
    <glyph glyph-name="macron" unicode="&#xaf;" horiz-adv-x="270" 
d="M32 520c-18 0 -32 13 -32 30s14 30 32 30h206c18 0 32 -13 32 -30s-14 -30 -32 -30h-206z" />
    <glyph glyph-name="dash" horiz-adv-x="270" 
d="M32 248c-18 0 -32 13 -32 30s14 30 32 30h206c18 0 32 -13 32 -30s-14 -30 -32 -30h-206z" />
    <glyph glyph-name="thorn" unicode="&#xfe;" horiz-adv-x="567" 
d="M144 18c0 -16 -14 -30 -32 -30s-32 14 -32 30v402c0 16 14 30 32 30s32 -14 32 -30v-47h180c75 0 151 -2 183 -47c15 -21 19 -45 19 -68c0 -40 -18 -79 -50 -95c-39 -20 -97 -21 -152 -21h-180v-124zM144 314v-113h180c42 0 95 1 121 14c12 6 17 23 17 43s-5 37 -17 43
c-26 13 -79 13 -121 13h-180z" />
    <glyph glyph-name="space" unicode=" " horiz-adv-x="269" 
 />
    </font>
</defs>
</svg>
